<svg width="314" height="182" viewBox="0 0 314 182" fill="none" xmlns="http://www.w3.org/2000/svg">
<g clip-path="url(#clip0_869_12)">
<circle opacity="0.2" cx="28" cy="158" r="4" fill="white"/>
<circle opacity="0.2" cx="41" cy="158" r="4" fill="white"/>
<circle cx="54" cy="158" r="4" fill="white"/>
<g filter="url(#filter0_d_869_12)">
<rect width="314" height="182" rx="17" fill="url(#paint0_linear_869_12)"/>
</g>
<path d="M29.9766 39.2344C33.1992 39.2344 35.1816 37.6523 35.1816 35.1523V35.1426C35.1816 32.9941 33.9707 31.8223 31.0801 31.1875L29.5176 30.8457C27.6816 30.4453 26.832 29.7227 26.832 28.5703V28.5605C26.832 27.2031 28.0625 26.3047 29.9473 26.2949C31.7344 26.2949 32.9355 27.1445 33.1504 28.5801L33.1699 28.7168H34.9277L34.918 28.5703C34.7617 26.2656 32.75 24.6738 29.9961 24.6738C27.0957 24.6738 25.0449 26.2949 25.0352 28.6094V28.6191C25.0352 30.6797 26.3242 31.9199 29.0781 32.5254L30.6406 32.8672C32.5742 33.2969 33.3848 33.9902 33.3848 35.2305V35.2402C33.3848 36.6953 32.1055 37.6133 30.0742 37.6133C28.0332 37.6133 26.666 36.7441 26.4609 35.3281L26.4414 35.1914H24.6836L24.6934 35.3281C24.8691 37.7402 26.9297 39.2344 29.9766 39.2344ZM38.9902 39H40.7188L43.0039 31.1387H43.043L45.3379 39H47.0664L49.8984 28.8438H48.2188L46.1875 37.1055H46.1484L43.8438 28.8438H42.2031L39.9082 37.1055H39.8691L37.8379 28.8438H36.1484L38.9902 39ZM52.252 27.125C52.8477 27.125 53.3164 26.6465 53.3164 26.0605C53.3164 25.4648 52.8477 24.9961 52.252 24.9961C51.666 24.9961 51.1875 25.4648 51.1875 26.0605C51.1875 26.6465 51.666 27.125 52.252 27.125ZM51.4023 39H53.1016V28.8438H51.4023V39ZM55.416 42.418H57.1152V37.3008H57.1543C57.7891 38.4727 58.9707 39.1953 60.4062 39.1953C62.9551 39.1953 64.6934 37.1348 64.6934 33.9316V33.9219C64.6934 30.7188 62.9746 28.6484 60.377 28.6484C58.9219 28.6484 57.7891 29.3809 57.1543 30.5625H57.1152V28.8438H55.416V42.418ZM60.0449 37.6914C58.3359 37.6914 57.1055 36.1973 57.1055 33.9316V33.9219C57.1055 31.6465 58.3262 30.1523 60.0449 30.1523C61.8418 30.1523 62.9551 31.5879 62.9551 33.9219V33.9316C62.9551 36.2461 61.8418 37.6914 60.0449 37.6914ZM70.5918 39.1953C72.8086 39.1953 74.4688 37.8672 74.8008 36.1875L74.8203 36.0898H73.1504L73.1211 36.1777C72.8281 37.0469 71.9199 37.6914 70.6309 37.6914C68.8242 37.6914 67.6719 36.4707 67.6328 34.3809H74.9473V33.7559C74.9473 30.709 73.2578 28.6484 70.4844 28.6484C67.7109 28.6484 65.9141 30.8066 65.9141 33.9512V33.9609C65.9141 37.1543 67.6719 39.1953 70.5918 39.1953ZM70.4746 30.1523C71.959 30.1523 73.0527 31.0801 73.2188 33.0527H67.6621C67.8477 31.1582 69 30.1523 70.4746 30.1523ZM84.0684 39.1953C84.4004 39.1953 84.7617 39.1562 84.9766 39.127V37.75C84.8301 37.7598 84.6348 37.7891 84.4297 37.7891C83.5215 37.7891 83.043 37.4863 83.043 36.4023V30.25H84.9766V28.8438H83.043V26.0996H81.2852V28.8438H79.8008V30.25H81.2852V36.4121C81.2852 38.3555 82.2031 39.1953 84.0684 39.1953ZM89.5762 39.1953C90.9336 39.1953 92.1543 38.4629 92.75 37.3496H92.7891V39H94.4883V31.9785C94.4883 29.9473 92.9844 28.6484 90.582 28.6484C88.1895 28.6484 86.7344 29.9961 86.5879 31.666L86.5781 31.7734H88.2188L88.2383 31.6855C88.4336 30.7773 89.2539 30.1523 90.5625 30.1523C91.9785 30.1523 92.7891 30.9043 92.7891 32.1445V32.9941L89.8789 33.1602C87.5449 33.2969 86.1973 34.3809 86.1973 36.1094V36.1289C86.1973 37.9746 87.5547 39.1953 89.5762 39.1953ZM87.9355 36.1289V36.1094C87.9355 35.1621 88.7168 34.5566 90.0742 34.4785L92.7891 34.3125V35.1426C92.7891 36.6172 91.5586 37.7207 89.957 37.7207C88.7363 37.7207 87.9355 37.1055 87.9355 36.1289ZM100.25 39.1953C102.516 39.1953 104.195 37.9453 104.195 36.168V36.1582C104.195 34.7129 103.453 33.9023 101.402 33.4043L99.791 33.0137C98.668 32.7402 98.209 32.2617 98.209 31.5684V31.5586C98.209 30.6602 98.9707 30.0645 100.201 30.0645C101.461 30.0645 102.213 30.7188 102.35 31.7051L102.359 31.7734H103.98L103.971 31.6465C103.844 29.9473 102.428 28.6484 100.201 28.6484C98.0039 28.6484 96.4707 29.8887 96.4707 31.6367V31.6465C96.4707 33.1113 97.3984 34 99.3125 34.459L100.924 34.8496C102.076 35.1328 102.457 35.543 102.457 36.2754V36.2852C102.457 37.2031 101.637 37.7793 100.26 37.7793C98.873 37.7793 98.1211 37.1836 97.916 36.168L97.8965 36.0703H96.1973L96.207 36.1582C96.4121 37.9746 97.8574 39.1953 100.25 39.1953ZM106.1 39H107.799V35.1719L108.746 34.2637L112.516 39H114.488L109.947 33.2285L114.352 28.8438H112.291L107.838 33.3262H107.799V24.9082H106.1V39ZM118.883 39.1953C121.148 39.1953 122.828 37.9453 122.828 36.168V36.1582C122.828 34.7129 122.086 33.9023 120.035 33.4043L118.424 33.0137C117.301 32.7402 116.842 32.2617 116.842 31.5684V31.5586C116.842 30.6602 117.604 30.0645 118.834 30.0645C120.094 30.0645 120.846 30.7188 120.982 31.7051L120.992 31.7734H122.613L122.604 31.6465C122.477 29.9473 121.061 28.6484 118.834 28.6484C116.637 28.6484 115.104 29.8887 115.104 31.6367V31.6465C115.104 33.1113 116.031 34 117.945 34.459L119.557 34.8496C120.709 35.1328 121.09 35.543 121.09 36.2754V36.2852C121.09 37.2031 120.27 37.7793 118.893 37.7793C117.506 37.7793 116.754 37.1836 116.549 36.168L116.529 36.0703H114.83L114.84 36.1582C115.045 37.9746 116.49 39.1953 118.883 39.1953ZM131.998 39.1953C132.33 39.1953 132.691 39.1562 132.906 39.127V37.75C132.76 37.7598 132.564 37.7891 132.359 37.7891C131.451 37.7891 130.973 37.4863 130.973 36.4023V30.25H132.906V28.8438H130.973V26.0996H129.215V28.8438H127.73V30.25H129.215V36.4121C129.215 38.3555 130.133 39.1953 131.998 39.1953ZM138.648 39.1953C141.451 39.1953 143.346 37.1641 143.346 33.9219V33.9023C143.346 30.6602 141.441 28.6484 138.639 28.6484C135.836 28.6484 133.941 30.6699 133.941 33.9023V33.9219C133.941 37.1543 135.826 39.1953 138.648 39.1953ZM138.658 37.6914C136.861 37.6914 135.68 36.3145 135.68 33.9219V33.9023C135.68 31.5293 136.871 30.1523 138.639 30.1523C140.436 30.1523 141.607 31.5195 141.607 33.9023V33.9219C141.607 36.3047 140.445 37.6914 138.658 37.6914ZM152.467 39.1953C152.799 39.1953 153.16 39.1562 153.375 39.127V37.75C153.229 37.7598 153.033 37.7891 152.828 37.7891C151.92 37.7891 151.441 37.4863 151.441 36.4023V30.25H153.375V28.8438H151.441V26.0996H149.684V28.8438H148.199V30.25H149.684V36.4121C149.684 38.3555 150.602 39.1953 152.467 39.1953ZM155.289 39H156.988V33.0723C156.988 31.3438 158.033 30.1523 159.605 30.1523C161.188 30.1523 162.125 31.2363 162.125 33.0723V39H163.824V32.7793C163.824 30.3184 162.35 28.6484 160.191 28.6484C158.678 28.6484 157.574 29.3223 157.027 30.4648H156.988V24.9082H155.289V39ZM170.162 39.1953C172.379 39.1953 174.039 37.8672 174.371 36.1875L174.391 36.0898H172.721L172.691 36.1777C172.398 37.0469 171.49 37.6914 170.201 37.6914C168.395 37.6914 167.242 36.4707 167.203 34.3809H174.518V33.7559C174.518 30.709 172.828 28.6484 170.055 28.6484C167.281 28.6484 165.484 30.8066 165.484 33.9512V33.9609C165.484 37.1543 167.242 39.1953 170.162 39.1953ZM170.045 30.1523C171.529 30.1523 172.623 31.0801 172.789 33.0527H167.232C167.418 31.1582 168.57 30.1523 170.045 30.1523ZM180.338 39H182.037V32.7305C182.037 31.1875 182.896 30.2695 184.215 30.2695C184.625 30.2695 184.986 30.3184 185.123 30.3672V28.7168C184.986 28.6973 184.732 28.6484 184.439 28.6484C183.297 28.6484 182.418 29.3906 182.076 30.5625H182.037V28.8438H180.338V39ZM187.467 27.125C188.062 27.125 188.531 26.6465 188.531 26.0605C188.531 25.4648 188.062 24.9961 187.467 24.9961C186.881 24.9961 186.402 25.4648 186.402 26.0605C186.402 26.6465 186.881 27.125 187.467 27.125ZM186.617 39H188.316V28.8438H186.617V39ZM194.928 42.6133C197.682 42.6133 199.41 41.0703 199.41 38.7168V28.8438H197.711V30.5625H197.672C197.047 29.4297 195.914 28.6484 194.479 28.6484C191.9 28.6484 190.133 30.6992 190.133 33.8535V33.8633C190.133 37.0371 191.881 39.0977 194.439 39.0977C195.895 39.0977 197.066 38.375 197.672 37.252H197.711V38.5508C197.711 40.123 196.695 41.1094 194.908 41.1094C193.521 41.1094 192.555 40.6602 192.232 39.9277L192.193 39.8398H190.484L190.504 39.9277C190.836 41.4316 192.418 42.6133 194.928 42.6133ZM194.811 37.5938C193.004 37.5938 191.871 36.168 191.871 33.8633V33.8535C191.871 31.5977 193.004 30.1523 194.811 30.1523C196.529 30.1523 197.711 31.6172 197.711 33.8535V33.8633C197.711 36.1191 196.539 37.5938 194.811 37.5938ZM201.695 39H203.395V33.0723C203.395 31.3438 204.439 30.1523 206.012 30.1523C207.594 30.1523 208.531 31.2363 208.531 33.0723V39H210.23V32.7793C210.23 30.3184 208.756 28.6484 206.598 28.6484C205.084 28.6484 203.98 29.3223 203.434 30.4648H203.395V24.9082H201.695V39ZM215.689 39.1953C216.021 39.1953 216.383 39.1562 216.598 39.127V37.75C216.451 37.7598 216.256 37.7891 216.051 37.7891C215.143 37.7891 214.664 37.4863 214.664 36.4023V30.25H216.598V28.8438H214.664V26.0996H212.906V28.8438H211.422V30.25H212.906V36.4121C212.906 38.3555 213.824 39.1953 215.689 39.1953ZM225.826 39.1953C226.158 39.1953 226.52 39.1562 226.734 39.127V37.75C226.588 37.7598 226.393 37.7891 226.188 37.7891C225.279 37.7891 224.801 37.4863 224.801 36.4023V30.25H226.734V28.8438H224.801V26.0996H223.043V28.8438H221.559V30.25H223.043V36.4121C223.043 38.3555 223.961 39.1953 225.826 39.1953ZM232.477 39.1953C235.279 39.1953 237.174 37.1641 237.174 33.9219V33.9023C237.174 30.6602 235.27 28.6484 232.467 28.6484C229.664 28.6484 227.77 30.6699 227.77 33.9023V33.9219C227.77 37.1543 229.654 39.1953 232.477 39.1953ZM232.486 37.6914C230.689 37.6914 229.508 36.3145 229.508 33.9219V33.9023C229.508 31.5293 230.699 30.1523 232.467 30.1523C234.264 30.1523 235.436 31.5195 235.436 33.9023V33.9219C235.436 36.3047 234.273 37.6914 232.486 37.6914ZM29.3125 63.1953C31.6074 63.1953 33.2773 61.7012 33.5508 59.7676L33.5605 59.6992H31.8906L31.8711 59.7773C31.5879 60.9102 30.6992 61.6914 29.3125 61.6914C27.5547 61.6914 26.3438 60.2949 26.3438 57.9316V57.9219C26.3438 55.6172 27.5254 54.1523 29.293 54.1523C30.7871 54.1523 31.6074 55.0508 31.8613 56.0664L31.8809 56.1445H33.541L33.5312 56.0664C33.3164 54.3281 31.8223 52.6484 29.293 52.6484C26.4707 52.6484 24.6055 54.6992 24.6055 57.9023V57.9121C24.6055 61.1445 26.4316 63.1953 29.3125 63.1953ZM39.332 63.1953C42.1348 63.1953 44.0293 61.1641 44.0293 57.9219V57.9023C44.0293 54.6602 42.125 52.6484 39.3223 52.6484C36.5195 52.6484 34.625 54.6699 34.625 57.9023V57.9219C34.625 61.1543 36.5098 63.1953 39.332 63.1953ZM39.3418 61.6914C37.5449 61.6914 36.3633 60.3145 36.3633 57.9219V57.9023C36.3633 55.5293 37.5547 54.1523 39.3223 54.1523C41.1191 54.1523 42.291 55.5195 42.291 57.9023V57.9219C42.291 60.3047 41.1289 61.6914 39.3418 61.6914ZM45.748 63H47.4473V56.6328C47.4473 55.2168 48.4238 54.1523 49.7715 54.1523C51.0312 54.1523 51.8516 54.9629 51.8516 56.1934V63H53.5508V56.5449C53.5508 55.1582 54.498 54.1523 55.8457 54.1523C57.1836 54.1523 57.9551 54.9824 57.9551 56.3789V63H59.6543V55.9883C59.6543 53.9668 58.3555 52.6484 56.3438 52.6484C54.918 52.6484 53.7266 53.3809 53.1602 54.6016H53.1211C52.6816 53.3613 51.6562 52.6484 50.2695 52.6484C48.9609 52.6484 47.9453 53.3223 47.4863 54.3281H47.4473V52.8438H45.748V63ZM61.8223 66.418H63.5215V61.3008H63.5605C64.1953 62.4727 65.377 63.1953 66.8125 63.1953C69.3613 63.1953 71.0996 61.1348 71.0996 57.9316V57.9219C71.0996 54.7188 69.3809 52.6484 66.7832 52.6484C65.3281 52.6484 64.1953 53.3809 63.5605 54.5625H63.5215V52.8438H61.8223V66.418ZM66.4512 61.6914C64.7422 61.6914 63.5117 60.1973 63.5117 57.9316V57.9219C63.5117 55.6465 64.7324 54.1523 66.4512 54.1523C68.248 54.1523 69.3613 55.5879 69.3613 57.9219V57.9316C69.3613 60.2461 68.248 61.6914 66.4512 61.6914ZM72.9062 63H74.6055V48.9082H72.9062V63ZM81.0801 63.1953C83.2969 63.1953 84.957 61.8672 85.2891 60.1875L85.3086 60.0898H83.6387L83.6094 60.1777C83.3164 61.0469 82.4082 61.6914 81.1191 61.6914C79.3125 61.6914 78.1602 60.4707 78.1211 58.3809H85.4355V57.7559C85.4355 54.709 83.7461 52.6484 80.9727 52.6484C78.1992 52.6484 76.4023 54.8066 76.4023 57.9512V57.9609C76.4023 61.1543 78.1602 63.1953 81.0801 63.1953ZM80.9629 54.1523C82.4473 54.1523 83.541 55.0801 83.707 57.0527H78.1504C78.3359 55.1582 79.4883 54.1523 80.9629 54.1523ZM90.4551 63.1953C90.7871 63.1953 91.1484 63.1562 91.3633 63.127V61.75C91.2168 61.7598 91.0215 61.7891 90.8164 61.7891C89.9082 61.7891 89.4297 61.4863 89.4297 60.4023V54.25H91.3633V52.8438H89.4297V50.0996H87.6719V52.8438H86.1875V54.25H87.6719V60.4121C87.6719 62.3555 88.5898 63.1953 90.4551 63.1953ZM97.0762 63.1953C99.293 63.1953 100.953 61.8672 101.285 60.1875L101.305 60.0898H99.6348L99.6055 60.1777C99.3125 61.0469 98.4043 61.6914 97.1152 61.6914C95.3086 61.6914 94.1562 60.4707 94.1172 58.3809H101.432V57.7559C101.432 54.709 99.7422 52.6484 96.9688 52.6484C94.1953 52.6484 92.3984 54.8066 92.3984 57.9512V57.9609C92.3984 61.1543 94.1562 63.1953 97.0762 63.1953ZM96.959 54.1523C98.4434 54.1523 99.5371 55.0801 99.7031 57.0527H94.1465C94.332 55.1582 95.4844 54.1523 96.959 54.1523ZM110.221 63.1953C111.578 63.1953 112.799 62.4629 113.395 61.3496H113.434V63H115.133V55.9785C115.133 53.9473 113.629 52.6484 111.227 52.6484C108.834 52.6484 107.379 53.9961 107.232 55.666L107.223 55.7734H108.863L108.883 55.6855C109.078 54.7773 109.898 54.1523 111.207 54.1523C112.623 54.1523 113.434 54.9043 113.434 56.1445V56.9941L110.523 57.1602C108.189 57.2969 106.842 58.3809 106.842 60.1094V60.1289C106.842 61.9746 108.199 63.1953 110.221 63.1953ZM108.58 60.1289V60.1094C108.58 59.1621 109.361 58.5566 110.719 58.4785L113.434 58.3125V59.1426C113.434 60.6172 112.203 61.7207 110.602 61.7207C109.381 61.7207 108.58 61.1055 108.58 60.1289ZM117.291 63H118.99V57.0234C118.99 55.2949 120.035 54.1523 121.637 54.1523C123.199 54.1523 123.971 55.0605 123.971 56.7109V63H125.67V56.4082C125.67 54.0938 124.381 52.6484 122.154 52.6484C120.611 52.6484 119.576 53.3418 119.029 54.2891H118.99V52.8438H117.291V63ZM131.656 63.1953C133.111 63.1953 134.244 62.4629 134.879 61.2812H134.918V63H136.617V48.9082H134.918V54.543H134.879C134.244 53.3711 133.062 52.6484 131.627 52.6484C129.078 52.6484 127.34 54.709 127.34 57.9121V57.9219C127.34 61.125 129.059 63.1953 131.656 63.1953ZM131.988 61.6914C130.191 61.6914 129.078 60.2559 129.078 57.9219V57.9121C129.078 55.5977 130.191 54.1523 131.988 54.1523C133.697 54.1523 134.928 55.6465 134.928 57.9121V57.9219C134.928 60.1973 133.707 61.6914 131.988 61.6914ZM143.102 63H144.801V48.9082H143.102V63ZM151.275 63.1953C153.492 63.1953 155.152 61.8672 155.484 60.1875L155.504 60.0898H153.834L153.805 60.1777C153.512 61.0469 152.604 61.6914 151.314 61.6914C149.508 61.6914 148.355 60.4707 148.316 58.3809H155.631V57.7559C155.631 54.709 153.941 52.6484 151.168 52.6484C148.395 52.6484 146.598 54.8066 146.598 57.9512V57.9609C146.598 61.1543 148.355 63.1953 151.275 63.1953ZM151.158 54.1523C152.643 54.1523 153.736 55.0801 153.902 57.0527H148.346C148.531 55.1582 149.684 54.1523 151.158 54.1523ZM157.896 63H159.596V54.25H161.666V52.8438H159.576V51.6035C159.576 50.5977 160.045 50.1191 160.982 50.1191C161.246 50.1191 161.51 50.1289 161.715 50.1582V48.7812C161.461 48.7422 161.061 48.7129 160.68 48.7129C158.805 48.7129 157.896 49.6406 157.896 51.5938V52.8438H156.48V54.25H157.896V63ZM166.725 63.1953C167.057 63.1953 167.418 63.1562 167.633 63.127V61.75C167.486 61.7598 167.291 61.7891 167.086 61.7891C166.178 61.7891 165.699 61.4863 165.699 60.4023V54.25H167.633V52.8438H165.699V50.0996H163.941V52.8438H162.457V54.25H163.941V60.4121C163.941 62.3555 164.859 63.1953 166.725 63.1953ZM176.861 63.1953C177.193 63.1953 177.555 63.1562 177.77 63.127V61.75C177.623 61.7598 177.428 61.7891 177.223 61.7891C176.314 61.7891 175.836 61.4863 175.836 60.4023V54.25H177.77V52.8438H175.836V50.0996H174.078V52.8438H172.594V54.25H174.078V60.4121C174.078 62.3555 174.996 63.1953 176.861 63.1953ZM183.512 63.1953C186.314 63.1953 188.209 61.1641 188.209 57.9219V57.9023C188.209 54.6602 186.305 52.6484 183.502 52.6484C180.699 52.6484 178.805 54.6699 178.805 57.9023V57.9219C178.805 61.1543 180.689 63.1953 183.512 63.1953ZM183.521 61.6914C181.725 61.6914 180.543 60.3145 180.543 57.9219V57.9023C180.543 55.5293 181.734 54.1523 183.502 54.1523C185.299 54.1523 186.471 55.5195 186.471 57.9023V57.9219C186.471 60.3047 185.309 61.6914 183.521 61.6914ZM197.848 63.1953C199.303 63.1953 200.436 62.4629 201.07 61.2812H201.109V63H202.809V48.9082H201.109V54.543H201.07C200.436 53.3711 199.254 52.6484 197.818 52.6484C195.27 52.6484 193.531 54.709 193.531 57.9121V57.9219C193.531 61.125 195.25 63.1953 197.848 63.1953ZM198.18 61.6914C196.383 61.6914 195.27 60.2559 195.27 57.9219V57.9121C195.27 55.5977 196.383 54.1523 198.18 54.1523C199.889 54.1523 201.119 55.6465 201.119 57.9121V57.9219C201.119 60.1973 199.898 61.6914 198.18 61.6914ZM206.061 51.125C206.656 51.125 207.125 50.6465 207.125 50.0605C207.125 49.4648 206.656 48.9961 206.061 48.9961C205.475 48.9961 204.996 49.4648 204.996 50.0605C204.996 50.6465 205.475 51.125 206.061 51.125ZM205.211 63H206.91V52.8438H205.211V63ZM212.828 63.1953C215.094 63.1953 216.773 61.9453 216.773 60.168V60.1582C216.773 58.7129 216.031 57.9023 213.98 57.4043L212.369 57.0137C211.246 56.7402 210.787 56.2617 210.787 55.5684V55.5586C210.787 54.6602 211.549 54.0645 212.779 54.0645C214.039 54.0645 214.791 54.7188 214.928 55.7051L214.938 55.7734H216.559L216.549 55.6465C216.422 53.9473 215.006 52.6484 212.779 52.6484C210.582 52.6484 209.049 53.8887 209.049 55.6367V55.6465C209.049 57.1113 209.977 58 211.891 58.459L213.502 58.8496C214.654 59.1328 215.035 59.543 215.035 60.2754V60.2852C215.035 61.2031 214.215 61.7793 212.838 61.7793C211.451 61.7793 210.699 61.1836 210.494 60.168L210.475 60.0703H208.775L208.785 60.1582C208.99 61.9746 210.436 63.1953 212.828 63.1953ZM218.541 63H220.24V56.6328C220.24 55.2168 221.217 54.1523 222.564 54.1523C223.824 54.1523 224.645 54.9629 224.645 56.1934V63H226.344V56.5449C226.344 55.1582 227.291 54.1523 228.639 54.1523C229.977 54.1523 230.748 54.9824 230.748 56.3789V63H232.447V55.9883C232.447 53.9668 231.148 52.6484 229.137 52.6484C227.711 52.6484 226.52 53.3809 225.953 54.6016H225.914C225.475 53.3613 224.449 52.6484 223.062 52.6484C221.754 52.6484 220.738 53.3223 220.279 54.3281H220.24V52.8438H218.541V63ZM235.572 51.125C236.168 51.125 236.637 50.6465 236.637 50.0605C236.637 49.4648 236.168 48.9961 235.572 48.9961C234.986 48.9961 234.508 49.4648 234.508 50.0605C234.508 50.6465 234.986 51.125 235.572 51.125ZM234.723 63H236.422V52.8438H234.723V63ZM242.34 63.1953C244.605 63.1953 246.285 61.9453 246.285 60.168V60.1582C246.285 58.7129 245.543 57.9023 243.492 57.4043L241.881 57.0137C240.758 56.7402 240.299 56.2617 240.299 55.5684V55.5586C240.299 54.6602 241.061 54.0645 242.291 54.0645C243.551 54.0645 244.303 54.7188 244.439 55.7051L244.449 55.7734H246.07L246.061 55.6465C245.934 53.9473 244.518 52.6484 242.291 52.6484C240.094 52.6484 238.561 53.8887 238.561 55.6367V55.6465C238.561 57.1113 239.488 58 241.402 58.459L243.014 58.8496C244.166 59.1328 244.547 59.543 244.547 60.2754V60.2852C244.547 61.2031 243.727 61.7793 242.35 61.7793C240.963 61.7793 240.211 61.1836 240.006 60.168L239.986 60.0703H238.287L238.297 60.1582C238.502 61.9746 239.947 63.1953 242.34 63.1953ZM251.656 63.1953C253.922 63.1953 255.602 61.9453 255.602 60.168V60.1582C255.602 58.7129 254.859 57.9023 252.809 57.4043L251.197 57.0137C250.074 56.7402 249.615 56.2617 249.615 55.5684V55.5586C249.615 54.6602 250.377 54.0645 251.607 54.0645C252.867 54.0645 253.619 54.7188 253.756 55.7051L253.766 55.7734H255.387L255.377 55.6465C255.25 53.9473 253.834 52.6484 251.607 52.6484C249.41 52.6484 247.877 53.8887 247.877 55.6367V55.6465C247.877 57.1113 248.805 58 250.719 58.459L252.33 58.8496C253.482 59.1328 253.863 59.543 253.863 60.2754V60.2852C253.863 61.2031 253.043 61.7793 251.666 61.7793C250.279 61.7793 249.527 61.1836 249.322 60.168L249.303 60.0703H247.604L247.613 60.1582C247.818 61.9746 249.264 63.1953 251.656 63.1953ZM258.414 63.1367C259.039 63.1367 259.527 62.6484 259.527 62.0234C259.527 61.3984 259.039 60.9102 258.414 60.9102C257.789 60.9102 257.301 61.3984 257.301 62.0234C257.301 62.6484 257.789 63.1367 258.414 63.1367Z" fill="white"/>
<rect x="159" y="123" width="93" height="27" rx="8" fill="#6600EE"/>
<rect x="159" y="91" width="93" height="27" rx="8" fill="#6600EE"/>
<g opacity="0.3">
<rect x="159" y="91" width="107" height="27" rx="8" fill="url(#paint1_linear_869_12)"/>
</g>
<g filter="url(#filter1_d_869_12)">
<rect x="202" y="91" width="93" height="27" rx="8" fill="#30006F"/>
<rect x="206" y="95" width="20" height="19" rx="5" fill="#4700A6"/>
<rect x="230" y="97" width="25" height="6" rx="2" fill="#4700A6"/>
<rect x="230" y="106" width="40" height="6" rx="2" fill="#4700A6"/>
</g>
<g filter="url(#filter2_d_869_12)">
<rect x="125" y="123" width="93" height="27" rx="8" fill="#30006F"/>
<rect x="129" y="127" width="20" height="19" rx="5" fill="#4700A6"/>
<rect x="153" y="129" width="25" height="6" rx="2" fill="#4700A6"/>
<rect x="153" y="138" width="40" height="6" rx="2" fill="#4700A6"/>
</g>
<path d="M286.059 160.109C290.992 158.316 292.668 154.215 290.746 148.953L289.949 146.762C289.234 144.781 287.816 143.867 286.68 144.277C286.41 144.383 286.305 144.594 286.398 144.852L286.75 145.801C286.902 146.223 286.773 146.504 286.527 146.598C286.258 146.703 285.965 146.562 285.812 146.141L285.59 145.52C285.156 144.336 284.102 143.82 283.059 144.195C282.566 144.371 282.414 144.676 282.566 145.098L283.035 146.387C283.199 146.809 283.07 147.09 282.812 147.184C282.543 147.289 282.262 147.148 282.109 146.727L281.676 145.531C281.195 144.207 280.188 143.832 279.156 144.207C278.688 144.371 278.523 144.688 278.664 145.098L279.59 147.641C279.742 148.062 279.613 148.344 279.367 148.438C279.098 148.543 278.816 148.402 278.664 147.98L275.594 139.555C275.277 138.699 274.504 138.324 273.766 138.594C272.969 138.887 272.629 139.66 272.945 140.527L277.398 152.762C277.504 153.043 277.387 153.254 277.211 153.324C277.035 153.383 276.859 153.336 276.648 153.102L273.648 149.891C273.18 149.387 272.676 149.223 272.102 149.434C271.293 149.727 270.953 150.477 271.211 151.18C271.305 151.449 271.434 151.66 271.574 151.824L275.441 156.629C278.664 160.648 282.367 161.457 286.059 160.109ZM271.246 140.832C267.742 142.965 265.469 146.914 265.469 151.73C265.469 152.211 265.879 152.621 266.324 152.609C266.793 152.598 267.133 152.234 267.145 151.766C267.25 147.605 269.008 144.336 271.844 142.461L271.246 140.832Z" fill="white"/>
<path opacity="0.5" d="M181.916 110.422C182.285 110.422 182.579 110.271 182.941 109.943L188.355 104.857C188.622 104.604 188.718 104.311 188.718 104.064C188.718 103.805 188.622 103.524 188.355 103.271L182.941 98.2197C182.545 97.8574 182.292 97.707 181.93 97.707C181.39 97.707 181.007 98.1309 181.007 98.6572V101.104H180.836C176.092 101.104 173.911 104.153 173.911 109.116C173.911 109.957 174.273 110.395 174.745 110.395C175.101 110.395 175.436 110.285 175.695 109.793C176.782 107.77 178.32 107.045 180.836 107.045H181.007V109.513C181.007 110.032 181.39 110.422 181.916 110.422Z" fill="url(#paint2_linear_869_12)"/>
<path d="M216 109.519C218.759 109.519 221.044 107.238 221.044 104.475C221.044 101.716 218.759 99.4307 215.995 99.4307C213.236 99.4307 210.956 101.716 210.956 104.475C210.956 107.238 213.241 109.519 216 109.519ZM215.458 106.887C215.272 106.887 215.121 106.804 214.984 106.628L213.788 105.173C213.7 105.065 213.656 104.948 213.656 104.826C213.656 104.577 213.852 104.372 214.105 104.372C214.257 104.372 214.374 104.431 214.496 104.587L215.438 105.783L217.46 102.551C217.562 102.38 217.699 102.297 217.855 102.297C218.1 102.297 218.319 102.468 218.319 102.722C218.319 102.834 218.261 102.956 218.192 103.063L215.907 106.628C215.795 106.794 215.639 106.887 215.458 106.887Z" fill="#92FF81"/>
<path d="M139 141.519C141.759 141.519 144.044 139.238 144.044 136.475C144.044 133.716 141.759 131.431 138.995 131.431C136.236 131.431 133.956 133.716 133.956 136.475C133.956 139.238 136.241 141.519 139 141.519ZM137.335 138.608C137.076 138.608 136.876 138.403 136.876 138.14C136.876 138.022 136.925 137.91 137.013 137.822L138.351 136.479L137.013 135.142C136.925 135.054 136.876 134.941 136.876 134.819C136.876 134.561 137.076 134.365 137.335 134.365C137.467 134.365 137.574 134.404 137.657 134.497L139 135.835L140.353 134.492C140.445 134.399 140.548 134.355 140.675 134.355C140.934 134.355 141.134 134.556 141.134 134.814C141.134 134.937 141.09 135.044 140.997 135.137L139.659 136.479L140.997 137.817C141.085 137.91 141.129 138.018 141.129 138.14C141.129 138.403 140.929 138.608 140.67 138.608C140.538 138.608 140.426 138.555 140.333 138.472L139 137.134L137.672 138.472C137.579 138.56 137.467 138.608 137.335 138.608Z" fill="#FF818E"/>
<path opacity="0.5" d="M236.077 141.422C236.604 141.422 236.993 141.032 236.993 140.513V138.045H237.164C239.673 138.045 241.211 138.77 242.298 140.793C242.564 141.285 242.899 141.395 243.248 141.395C243.72 141.395 244.082 140.957 244.082 140.116C244.082 135.153 241.901 132.104 237.164 132.104H236.993V129.657C236.993 129.131 236.604 128.707 236.063 128.707C235.701 128.707 235.448 128.857 235.059 129.22L229.638 134.271C229.371 134.524 229.275 134.805 229.275 135.064C229.275 135.311 229.378 135.604 229.645 135.857L235.059 140.943C235.414 141.271 235.708 141.422 236.077 141.422Z" fill="url(#paint3_linear_869_12)"/>
<circle cx="28" cy="159" r="4" fill="white"/>
<circle opacity="0.2" cx="41" cy="159" r="4" fill="white"/>
<circle opacity="0.2" cx="54" cy="159" r="4" fill="white"/>
</g>
<defs>
<filter id="filter0_d_869_12" x="-10" y="-8" width="334" height="202" filterUnits="userSpaceOnUse" color-interpolation-filters="sRGB">
<feFlood flood-opacity="0" result="BackgroundImageFix"/>
<feColorMatrix in="SourceAlpha" type="matrix" values="0 0 0 0 0 0 0 0 0 0 0 0 0 0 0 0 0 0 127 0" result="hardAlpha"/>
<feOffset dy="2"/>
<feGaussianBlur stdDeviation="5"/>
<feComposite in2="hardAlpha" operator="out"/>
<feColorMatrix type="matrix" values="0 0 0 0 0 0 0 0 0 0 0 0 0 0 0 0 0 0 0.1 0"/>
<feBlend mode="normal" in2="BackgroundImageFix" result="effect1_dropShadow_869_12"/>
<feBlend mode="normal" in="SourceGraphic" in2="effect1_dropShadow_869_12" result="shape"/>
</filter>
<filter id="filter1_d_869_12" x="198" y="91" width="101" height="35" filterUnits="userSpaceOnUse" color-interpolation-filters="sRGB">
<feFlood flood-opacity="0" result="BackgroundImageFix"/>
<feColorMatrix in="SourceAlpha" type="matrix" values="0 0 0 0 0 0 0 0 0 0 0 0 0 0 0 0 0 0 127 0" result="hardAlpha"/>
<feOffset dy="4"/>
<feGaussianBlur stdDeviation="2"/>
<feComposite in2="hardAlpha" operator="out"/>
<feColorMatrix type="matrix" values="0 0 0 0 0 0 0 0 0 0 0 0 0 0 0 0 0 0 0.1 0"/>
<feBlend mode="normal" in2="BackgroundImageFix" result="effect1_dropShadow_869_12"/>
<feBlend mode="normal" in="SourceGraphic" in2="effect1_dropShadow_869_12" result="shape"/>
</filter>
<filter id="filter2_d_869_12" x="121" y="123" width="101" height="35" filterUnits="userSpaceOnUse" color-interpolation-filters="sRGB">
<feFlood flood-opacity="0" result="BackgroundImageFix"/>
<feColorMatrix in="SourceAlpha" type="matrix" values="0 0 0 0 0 0 0 0 0 0 0 0 0 0 0 0 0 0 127 0" result="hardAlpha"/>
<feOffset dy="4"/>
<feGaussianBlur stdDeviation="2"/>
<feComposite in2="hardAlpha" operator="out"/>
<feColorMatrix type="matrix" values="0 0 0 0 0 0 0 0 0 0 0 0 0 0 0 0 0 0 0.1 0"/>
<feBlend mode="normal" in2="BackgroundImageFix" result="effect1_dropShadow_869_12"/>
<feBlend mode="normal" in="SourceGraphic" in2="effect1_dropShadow_869_12" result="shape"/>
</filter>
<linearGradient id="paint0_linear_869_12" x1="332" y1="9.39866e-06" x2="-50.299" y2="182.646" gradientUnits="userSpaceOnUse">
<stop stop-color="#7600FF"/>
<stop offset="1" stop-color="#28007D"/>
</linearGradient>
<linearGradient id="paint1_linear_869_12" x1="205.5" y1="105.5" x2="158.5" y2="106" gradientUnits="userSpaceOnUse">
<stop stop-color="#30006F"/>
<stop offset="1" stop-color="#30006F" stop-opacity="0"/>
</linearGradient>
<linearGradient id="paint2_linear_869_12" x1="192.193" y1="69.0833" x2="168.947" y2="69.7745" gradientUnits="userSpaceOnUse">
<stop stop-color="white"/>
<stop offset="1" stop-color="#AFE2FF"/>
</linearGradient>
<linearGradient id="paint3_linear_869_12" x1="248.193" y1="100.083" x2="224.947" y2="100.774" gradientUnits="userSpaceOnUse">
<stop stop-color="white"/>
<stop offset="1" stop-color="#AFE2FF"/>
</linearGradient>
<clipPath id="clip0_869_12">
<rect width="314" height="182" rx="17" fill="white"/>
</clipPath>
</defs>
</svg>
