<svg width="314" height="182" viewBox="0 0 314 182" fill="none" xmlns="http://www.w3.org/2000/svg">
<g clip-path="url(#clip0_869_29)">
<circle opacity="0.2" cx="28" cy="158" r="4" fill="white"/>
<g filter="url(#filter0_d_869_29)">
<rect width="314" height="182" rx="17" fill="url(#paint0_linear_869_29)"/>
</g>
<path d="M28.9316 39H30.6895V26.4902H35.1328V24.9082H24.4883V26.4902H28.9316V39ZM37.0566 39.1953C38.4141 39.1953 39.6348 38.4629 40.2305 37.3496H40.2695V39H41.9688V31.9785C41.9688 29.9473 40.4648 28.6484 38.0625 28.6484C35.6699 28.6484 34.2148 29.9961 34.0684 31.666L34.0586 31.7734H35.6992L35.7188 31.6855C35.9141 30.7773 36.7344 30.1523 38.043 30.1523C39.459 30.1523 40.2695 30.9043 40.2695 32.1445V32.9941L37.3594 33.1602C35.0254 33.2969 33.6777 34.3809 33.6777 36.1094V36.1289C33.6777 37.9746 35.0352 39.1953 37.0566 39.1953ZM35.416 36.1289V36.1094C35.416 35.1621 36.1973 34.5566 37.5547 34.4785L40.2695 34.3125V35.1426C40.2695 36.6172 39.0391 37.7207 37.4375 37.7207C36.2168 37.7207 35.416 37.1055 35.416 36.1289ZM44.127 42.418H45.8262V37.3008H45.8652C46.5 38.4727 47.6816 39.1953 49.1172 39.1953C51.666 39.1953 53.4043 37.1348 53.4043 33.9316V33.9219C53.4043 30.7188 51.6855 28.6484 49.0879 28.6484C47.6328 28.6484 46.5 29.3809 45.8652 30.5625H45.8262V28.8438H44.127V42.418ZM48.7559 37.6914C47.0469 37.6914 45.8164 36.1973 45.8164 33.9316V33.9219C45.8164 31.6465 47.0371 30.1523 48.7559 30.1523C50.5527 30.1523 51.666 31.5879 51.666 33.9219V33.9316C51.666 36.2461 50.5527 37.6914 48.7559 37.6914ZM63.4336 39.1953C66.2363 39.1953 68.1309 37.1641 68.1309 33.9219V33.9023C68.1309 30.6602 66.2266 28.6484 63.4238 28.6484C60.6211 28.6484 58.7266 30.6699 58.7266 33.9023V33.9219C58.7266 37.1543 60.6113 39.1953 63.4336 39.1953ZM63.4434 37.6914C61.6465 37.6914 60.4648 36.3145 60.4648 33.9219V33.9023C60.4648 31.5293 61.6562 30.1523 63.4238 30.1523C65.2207 30.1523 66.3926 31.5195 66.3926 33.9023V33.9219C66.3926 36.3047 65.2305 37.6914 63.4434 37.6914ZM69.8496 39H71.5488V33.0234C71.5488 31.2949 72.5938 30.1523 74.1953 30.1523C75.7578 30.1523 76.5293 31.0605 76.5293 32.7109V39H78.2285V32.4082C78.2285 30.0938 76.9395 28.6484 74.7129 28.6484C73.1699 28.6484 72.1348 29.3418 71.5879 30.2891H71.5488V28.8438H69.8496V39ZM87.4668 39.1953C88.8242 39.1953 90.0449 38.4629 90.6406 37.3496H90.6797V39H92.3789V31.9785C92.3789 29.9473 90.875 28.6484 88.4727 28.6484C86.0801 28.6484 84.625 29.9961 84.4785 31.666L84.4688 31.7734H86.1094L86.1289 31.6855C86.3242 30.7773 87.1445 30.1523 88.4531 30.1523C89.8691 30.1523 90.6797 30.9043 90.6797 32.1445V32.9941L87.7695 33.1602C85.4355 33.2969 84.0879 34.3809 84.0879 36.1094V36.1289C84.0879 37.9746 85.4453 39.1953 87.4668 39.1953ZM85.8262 36.1289V36.1094C85.8262 35.1621 86.6074 34.5566 87.9648 34.4785L90.6797 34.3125V35.1426C90.6797 36.6172 89.4492 37.7207 87.8477 37.7207C86.627 37.7207 85.8262 37.1055 85.8262 36.1289ZM101.939 39.1953C102.271 39.1953 102.633 39.1562 102.848 39.127V37.75C102.701 37.7598 102.506 37.7891 102.301 37.7891C101.393 37.7891 100.914 37.4863 100.914 36.4023V30.25H102.848V28.8438H100.914V26.0996H99.1562V28.8438H97.6719V30.25H99.1562V36.4121C99.1562 38.3555 100.074 39.1953 101.939 39.1953ZM107.447 39.1953C108.805 39.1953 110.025 38.4629 110.621 37.3496H110.66V39H112.359V31.9785C112.359 29.9473 110.855 28.6484 108.453 28.6484C106.061 28.6484 104.605 29.9961 104.459 31.666L104.449 31.7734H106.09L106.109 31.6855C106.305 30.7773 107.125 30.1523 108.434 30.1523C109.85 30.1523 110.66 30.9043 110.66 32.1445V32.9941L107.75 33.1602C105.416 33.2969 104.068 34.3809 104.068 36.1094V36.1289C104.068 37.9746 105.426 39.1953 107.447 39.1953ZM105.807 36.1289V36.1094C105.807 35.1621 106.588 34.5566 107.945 34.4785L110.66 34.3125V35.1426C110.66 36.6172 109.43 37.7207 107.828 37.7207C106.607 37.7207 105.807 37.1055 105.807 36.1289ZM118.121 39.1953C120.387 39.1953 122.066 37.9453 122.066 36.168V36.1582C122.066 34.7129 121.324 33.9023 119.273 33.4043L117.662 33.0137C116.539 32.7402 116.08 32.2617 116.08 31.5684V31.5586C116.08 30.6602 116.842 30.0645 118.072 30.0645C119.332 30.0645 120.084 30.7188 120.221 31.7051L120.23 31.7734H121.852L121.842 31.6465C121.715 29.9473 120.299 28.6484 118.072 28.6484C115.875 28.6484 114.342 29.8887 114.342 31.6367V31.6465C114.342 33.1113 115.27 34 117.184 34.459L118.795 34.8496C119.947 35.1328 120.328 35.543 120.328 36.2754V36.2852C120.328 37.2031 119.508 37.7793 118.131 37.7793C116.744 37.7793 115.992 37.1836 115.787 36.168L115.768 36.0703H114.068L114.078 36.1582C114.283 37.9746 115.729 39.1953 118.121 39.1953ZM123.971 39H125.67V35.1719L126.617 34.2637L130.387 39H132.359L127.818 33.2285L132.223 28.8438H130.162L125.709 33.3262H125.67V24.9082H123.971V39ZM28.4043 63.1953C28.7363 63.1953 29.0977 63.1562 29.3125 63.127V61.75C29.166 61.7598 28.9707 61.7891 28.7656 61.7891C27.8574 61.7891 27.3789 61.4863 27.3789 60.4023V54.25H29.3125V52.8438H27.3789V50.0996H25.6211V52.8438H24.1367V54.25H25.6211V60.4121C25.6211 62.3555 26.5391 63.1953 28.4043 63.1953ZM35.0547 63.1953C37.8574 63.1953 39.752 61.1641 39.752 57.9219V57.9023C39.752 54.6602 37.8477 52.6484 35.0449 52.6484C32.2422 52.6484 30.3477 54.6699 30.3477 57.9023V57.9219C30.3477 61.1543 32.2324 63.1953 35.0547 63.1953ZM35.0645 61.6914C33.2676 61.6914 32.0859 60.3145 32.0859 57.9219V57.9023C32.0859 55.5293 33.2773 54.1523 35.0449 54.1523C36.8418 54.1523 38.0137 55.5195 38.0137 57.9023V57.9219C38.0137 60.3047 36.8516 61.6914 35.0645 61.6914ZM45.6602 63H47.3594V48.9082H45.6602V63ZM53.834 63.1953C56.0508 63.1953 57.7109 61.8672 58.043 60.1875L58.0625 60.0898H56.3926L56.3633 60.1777C56.0703 61.0469 55.1621 61.6914 53.873 61.6914C52.0664 61.6914 50.9141 60.4707 50.875 58.3809H58.1895V57.7559C58.1895 54.709 56.5 52.6484 53.7266 52.6484C50.9531 52.6484 49.1562 54.8066 49.1562 57.9512V57.9609C49.1562 61.1543 50.9141 63.1953 53.834 63.1953ZM53.7168 54.1523C55.2012 54.1523 56.2949 55.0801 56.4609 57.0527H50.9043C51.0898 55.1582 52.2422 54.1523 53.7168 54.1523ZM62.877 63.1953C64.2344 63.1953 65.4551 62.4629 66.0508 61.3496H66.0898V63H67.7891V55.9785C67.7891 53.9473 66.2852 52.6484 63.8828 52.6484C61.4902 52.6484 60.0352 53.9961 59.8887 55.666L59.8789 55.7734H61.5195L61.5391 55.6855C61.7344 54.7773 62.5547 54.1523 63.8633 54.1523C65.2793 54.1523 66.0898 54.9043 66.0898 56.1445V56.9941L63.1797 57.1602C60.8457 57.2969 59.498 58.3809 59.498 60.1094V60.1289C59.498 61.9746 60.8555 63.1953 62.877 63.1953ZM61.2363 60.1289V60.1094C61.2363 59.1621 62.0176 58.5566 63.375 58.4785L66.0898 58.3125V59.1426C66.0898 60.6172 64.8594 61.7207 63.2578 61.7207C62.0371 61.7207 61.2363 61.1055 61.2363 60.1289ZM69.9473 63H71.6465V56.7305C71.6465 55.1875 72.5059 54.2695 73.8242 54.2695C74.2344 54.2695 74.5957 54.3184 74.7324 54.3672V52.7168C74.5957 52.6973 74.3418 52.6484 74.0488 52.6484C72.9062 52.6484 72.0273 53.3906 71.6855 54.5625H71.6465V52.8438H69.9473V63ZM76.1191 63H77.8184V57.0234C77.8184 55.2949 78.8633 54.1523 80.4648 54.1523C82.0273 54.1523 82.7988 55.0605 82.7988 56.7109V63H84.498V56.4082C84.498 54.0938 83.209 52.6484 80.9824 52.6484C79.4395 52.6484 78.4043 53.3418 77.8574 54.2891H77.8184V52.8438H76.1191V63ZM90.7676 63H92.4668V56.6328C92.4668 55.2168 93.4434 54.1523 94.791 54.1523C96.0508 54.1523 96.8711 54.9629 96.8711 56.1934V63H98.5703V56.5449C98.5703 55.1582 99.5176 54.1523 100.865 54.1523C102.203 54.1523 102.975 54.9824 102.975 56.3789V63H104.674V55.9883C104.674 53.9668 103.375 52.6484 101.363 52.6484C99.9375 52.6484 98.7461 53.3809 98.1797 54.6016H98.1406C97.7012 53.3613 96.6758 52.6484 95.2891 52.6484C93.9805 52.6484 92.9648 53.3223 92.5059 54.3281H92.4668V52.8438H90.7676V63ZM111.051 63.1953C113.854 63.1953 115.748 61.1641 115.748 57.9219V57.9023C115.748 54.6602 113.844 52.6484 111.041 52.6484C108.238 52.6484 106.344 54.6699 106.344 57.9023V57.9219C106.344 61.1543 108.229 63.1953 111.051 63.1953ZM111.061 61.6914C109.264 61.6914 108.082 60.3145 108.082 57.9219V57.9023C108.082 55.5293 109.273 54.1523 111.041 54.1523C112.838 54.1523 114.01 55.5195 114.01 57.9023V57.9219C114.01 60.3047 112.848 61.6914 111.061 61.6914ZM117.467 63H119.166V56.7305C119.166 55.1875 120.025 54.2695 121.344 54.2695C121.754 54.2695 122.115 54.3184 122.252 54.3672V52.7168C122.115 52.6973 121.861 52.6484 121.568 52.6484C120.426 52.6484 119.547 53.3906 119.205 54.5625H119.166V52.8438H117.467V63ZM127.33 63.1953C129.547 63.1953 131.207 61.8672 131.539 60.1875L131.559 60.0898H129.889L129.859 60.1777C129.566 61.0469 128.658 61.6914 127.369 61.6914C125.562 61.6914 124.41 60.4707 124.371 58.3809H131.686V57.7559C131.686 54.709 129.996 52.6484 127.223 52.6484C124.449 52.6484 122.652 54.8066 122.652 57.9512V57.9609C122.652 61.1543 124.41 63.1953 127.33 63.1953ZM127.213 54.1523C128.697 54.1523 129.791 55.0801 129.957 57.0527H124.4C124.586 55.1582 125.738 54.1523 127.213 54.1523ZM28.0723 87.1953C29.4297 87.1953 30.6504 86.4629 31.2461 85.3496H31.2852V87H32.9844V79.9785C32.9844 77.9473 31.4805 76.6484 29.0781 76.6484C26.6855 76.6484 25.2305 77.9961 25.084 79.666L25.0742 79.7734H26.7148L26.7344 79.6855C26.9297 78.7773 27.75 78.1523 29.0586 78.1523C30.4746 78.1523 31.2852 78.9043 31.2852 80.1445V80.9941L28.375 81.1602C26.041 81.2969 24.6934 82.3809 24.6934 84.1094V84.1289C24.6934 85.9746 26.0508 87.1953 28.0723 87.1953ZM26.4316 84.1289V84.1094C26.4316 83.1621 27.2129 82.5566 28.5703 82.4785L31.2852 82.3125V83.1426C31.2852 84.6172 30.0547 85.7207 28.4531 85.7207C27.2324 85.7207 26.4316 85.1055 26.4316 84.1289ZM35.1426 87H36.8418V81.0234C36.8418 79.2949 37.8867 78.1523 39.4883 78.1523C41.0508 78.1523 41.8223 79.0605 41.8223 80.7109V87H43.5215V80.4082C43.5215 78.0938 42.2324 76.6484 40.0059 76.6484C38.4629 76.6484 37.4277 77.3418 36.8809 78.2891H36.8418V76.8438H35.1426V87ZM49.5078 87.1953C50.9629 87.1953 52.0957 86.4629 52.7305 85.2812H52.7695V87H54.4688V72.9082H52.7695V78.543H52.7305C52.0957 77.3711 50.9141 76.6484 49.4785 76.6484C46.9297 76.6484 45.1914 78.709 45.1914 81.9121V81.9219C45.1914 85.125 46.9102 87.1953 49.5078 87.1953ZM49.8398 85.6914C48.043 85.6914 46.9297 84.2559 46.9297 81.9219V81.9121C46.9297 79.5977 48.043 78.1523 49.8398 78.1523C51.5488 78.1523 52.7793 79.6465 52.7793 81.9121V81.9219C52.7793 84.1973 51.5586 85.6914 49.8398 85.6914ZM60.8652 87H62.5645V80.6328C62.5645 79.2168 63.541 78.1523 64.8887 78.1523C66.1484 78.1523 66.9688 78.9629 66.9688 80.1934V87H68.668V80.5449C68.668 79.1582 69.6152 78.1523 70.9629 78.1523C72.3008 78.1523 73.0723 78.9824 73.0723 80.3789V87H74.7715V79.9883C74.7715 77.9668 73.4727 76.6484 71.4609 76.6484C70.0352 76.6484 68.8438 77.3809 68.2773 78.6016H68.2383C67.7988 77.3613 66.7734 76.6484 65.3867 76.6484C64.0781 76.6484 63.0625 77.3223 62.6035 78.3281H62.5645V76.8438H60.8652V87ZM79.9082 87.1953C81.2656 87.1953 82.4863 86.4629 83.082 85.3496H83.1211V87H84.8203V79.9785C84.8203 77.9473 83.3164 76.6484 80.9141 76.6484C78.5215 76.6484 77.0664 77.9961 76.9199 79.666L76.9102 79.7734H78.5508L78.5703 79.6855C78.7656 78.7773 79.5859 78.1523 80.8945 78.1523C82.3105 78.1523 83.1211 78.9043 83.1211 80.1445V80.9941L80.2109 81.1602C77.877 81.2969 76.5293 82.3809 76.5293 84.1094V84.1289C76.5293 85.9746 77.8867 87.1953 79.9082 87.1953ZM78.2676 84.1289V84.1094C78.2676 83.1621 79.0488 82.5566 80.4062 82.4785L83.1211 82.3125V83.1426C83.1211 84.6172 81.8906 85.7207 80.2891 85.7207C79.0684 85.7207 78.2676 85.1055 78.2676 84.1289ZM86.9785 87H88.6777V81.0234C88.6777 79.2949 89.7227 78.1523 91.3242 78.1523C92.8867 78.1523 93.6582 79.0605 93.6582 80.7109V87H95.3574V80.4082C95.3574 78.0938 94.0684 76.6484 91.8418 76.6484C90.2988 76.6484 89.2637 77.3418 88.7168 78.2891H88.6777V76.8438H86.9785V87ZM100.494 87.1953C101.852 87.1953 103.072 86.4629 103.668 85.3496H103.707V87H105.406V79.9785C105.406 77.9473 103.902 76.6484 101.5 76.6484C99.1074 76.6484 97.6523 77.9961 97.5059 79.666L97.4961 79.7734H99.1367L99.1562 79.6855C99.3516 78.7773 100.172 78.1523 101.48 78.1523C102.896 78.1523 103.707 78.9043 103.707 80.1445V80.9941L100.797 81.1602C98.4629 81.2969 97.1152 82.3809 97.1152 84.1094V84.1289C97.1152 85.9746 98.4727 87.1953 100.494 87.1953ZM98.8535 84.1289V84.1094C98.8535 83.1621 99.6348 82.5566 100.992 82.4785L103.707 82.3125V83.1426C103.707 84.6172 102.477 85.7207 100.875 85.7207C99.6543 85.7207 98.8535 85.1055 98.8535 84.1289ZM111.861 90.6133C114.615 90.6133 116.344 89.0703 116.344 86.7168V76.8438H114.645V78.5625H114.605C113.98 77.4297 112.848 76.6484 111.412 76.6484C108.834 76.6484 107.066 78.6992 107.066 81.8535V81.8633C107.066 85.0371 108.814 87.0977 111.373 87.0977C112.828 87.0977 114 86.375 114.605 85.252H114.645V86.5508C114.645 88.123 113.629 89.1094 111.842 89.1094C110.455 89.1094 109.488 88.6602 109.166 87.9277L109.127 87.8398H107.418L107.438 87.9277C107.77 89.4316 109.352 90.6133 111.861 90.6133ZM111.744 85.5938C109.938 85.5938 108.805 84.168 108.805 81.8633V81.8535C108.805 79.5977 109.938 78.1523 111.744 78.1523C113.463 78.1523 114.645 79.6172 114.645 81.8535V81.8633C114.645 84.1191 113.473 85.5938 111.744 85.5938ZM122.721 87.1953C124.938 87.1953 126.598 85.8672 126.93 84.1875L126.949 84.0898H125.279L125.25 84.1777C124.957 85.0469 124.049 85.6914 122.76 85.6914C120.953 85.6914 119.801 84.4707 119.762 82.3809H127.076V81.7559C127.076 78.709 125.387 76.6484 122.613 76.6484C119.84 76.6484 118.043 78.8066 118.043 81.9512V81.9609C118.043 85.1543 119.801 87.1953 122.721 87.1953ZM122.604 78.1523C124.088 78.1523 125.182 79.0801 125.348 81.0527H119.791C119.977 79.1582 121.129 78.1523 122.604 78.1523ZM28.0723 111.195C29.4297 111.195 30.6504 110.463 31.2461 109.35H31.2852V111H32.9844V103.979C32.9844 101.947 31.4805 100.648 29.0781 100.648C26.6855 100.648 25.2305 101.996 25.084 103.666L25.0742 103.773H26.7148L26.7344 103.686C26.9297 102.777 27.75 102.152 29.0586 102.152C30.4746 102.152 31.2852 102.904 31.2852 104.145V104.994L28.375 105.16C26.041 105.297 24.6934 106.381 24.6934 108.109V108.129C24.6934 109.975 26.0508 111.195 28.0723 111.195ZM26.4316 108.129V108.109C26.4316 107.162 27.2129 106.557 28.5703 106.479L31.2852 106.312V107.143C31.2852 108.617 30.0547 109.721 28.4531 109.721C27.2324 109.721 26.4316 109.105 26.4316 108.129ZM35.2305 111H36.9297V96.9082H35.2305V111ZM43.4043 111.195C45.6211 111.195 47.2812 109.867 47.6133 108.188L47.6328 108.09H45.9629L45.9336 108.178C45.6406 109.047 44.7324 109.691 43.4434 109.691C41.6367 109.691 40.4844 108.471 40.4453 106.381H47.7598V105.756C47.7598 102.709 46.0703 100.648 43.2969 100.648C40.5234 100.648 38.7266 102.807 38.7266 105.951V105.961C38.7266 109.154 40.4844 111.195 43.4043 111.195ZM43.2871 102.152C44.7715 102.152 45.8652 103.08 46.0312 105.053H40.4746C40.6602 103.158 41.8125 102.152 43.2871 102.152ZM49.4785 111H51.1777V104.73C51.1777 103.188 52.0371 102.27 53.3555 102.27C53.7656 102.27 54.127 102.318 54.2637 102.367V100.717C54.127 100.697 53.873 100.648 53.5801 100.648C52.4375 100.648 51.5586 101.391 51.2168 102.562H51.1777V100.844H49.4785V111ZM58.9512 111.195C59.2832 111.195 59.6445 111.156 59.8594 111.127V109.75C59.7129 109.76 59.5176 109.789 59.3125 109.789C58.4043 109.789 57.9258 109.486 57.9258 108.402V102.25H59.8594V100.844H57.9258V98.0996H56.168V100.844H54.6836V102.25H56.168V108.412C56.168 110.355 57.0859 111.195 58.9512 111.195ZM65.2891 111.195C67.5547 111.195 69.2344 109.945 69.2344 108.168V108.158C69.2344 106.713 68.4922 105.902 66.4414 105.404L64.8301 105.014C63.707 104.74 63.248 104.262 63.248 103.568V103.559C63.248 102.66 64.0098 102.064 65.2402 102.064C66.5 102.064 67.252 102.719 67.3887 103.705L67.3984 103.773H69.0195L69.0098 103.646C68.8828 101.947 67.4668 100.648 65.2402 100.648C63.043 100.648 61.5098 101.889 61.5098 103.637V103.646C61.5098 105.111 62.4375 106 64.3516 106.459L65.9629 106.85C67.1152 107.133 67.4961 107.543 67.4961 108.275V108.285C67.4961 109.203 66.6758 109.779 65.2988 109.779C63.9121 109.779 63.1602 109.184 62.9551 108.168L62.9355 108.07H61.2363L61.2461 108.158C61.4512 109.975 62.8965 111.195 65.2891 111.195ZM72.0469 111.137C72.6719 111.137 73.1602 110.648 73.1602 110.023C73.1602 109.398 72.6719 108.91 72.0469 108.91C71.4219 108.91 70.9336 109.398 70.9336 110.023C70.9336 110.648 71.4219 111.137 72.0469 111.137Z" fill="white"/>
<circle opacity="0.2" cx="28" cy="159" r="4" fill="white"/>
<circle cx="41" cy="159" r="4" fill="white"/>
<circle opacity="0.2" cx="54" cy="159" r="4" fill="white"/>
<g opacity="0.3">
<path d="M167 33C167 28.5817 170.582 25 175 25H258C262.418 25 266 28.5817 266 33V182H167V33Z" fill="#A079F7"/>
</g>
<g filter="url(#filter1_d_869_29)">
<path d="M167 100C167 95.5817 170.582 92 175 92H258C262.418 92 266 95.5817 266 100V182H167V100Z" fill="#30006F"/>
<path d="M175 94H258C261.314 94 264 96.6863 264 100V148H169V100C169 96.6863 171.686 94 175 94Z" fill="#4500A0" stroke="#30006F" stroke-width="4"/>
<rect x="175" y="155" width="24" height="9" rx="2" fill="#4700A6"/>
<rect x="175.485" y="167" width="37.7143" height="6" rx="2" fill="#4700A6"/>
</g>
<rect x="230" y="159" width="25" height="14" rx="7" fill="#92FF81"/>
<circle cx="248" cy="166" r="5" fill="#30006F"/>
<path d="M216.709 130.91C222.158 130.91 226.67 126.389 226.67 120.949C226.67 115.5 222.148 110.988 216.699 110.988C211.26 110.988 206.748 115.5 206.748 120.949C206.748 126.389 211.27 130.91 216.709 130.91ZM216.621 117.385C215.889 117.385 215.303 116.799 215.303 116.057C215.303 115.314 215.889 114.729 216.621 114.729C217.354 114.729 217.93 115.314 217.93 116.057C217.93 116.799 217.354 117.385 216.621 117.385ZM214.951 126.506C214.531 126.506 214.209 126.203 214.209 125.783C214.209 125.393 214.531 125.07 214.951 125.07H216.191V120.48H215.117C214.707 120.48 214.385 120.178 214.385 119.758C214.385 119.367 214.707 119.045 215.117 119.045H217.012C217.529 119.045 217.803 119.416 217.803 119.963V125.07H219.043C219.463 125.07 219.785 125.393 219.785 125.783C219.785 126.203 219.463 126.506 219.043 126.506H214.951Z" fill="#30006F"/>
</g>
<defs>
<filter id="filter0_d_869_29" x="-10" y="-8" width="334" height="202" filterUnits="userSpaceOnUse" color-interpolation-filters="sRGB">
<feFlood flood-opacity="0" result="BackgroundImageFix"/>
<feColorMatrix in="SourceAlpha" type="matrix" values="0 0 0 0 0 0 0 0 0 0 0 0 0 0 0 0 0 0 127 0" result="hardAlpha"/>
<feOffset dy="2"/>
<feGaussianBlur stdDeviation="5"/>
<feComposite in2="hardAlpha" operator="out"/>
<feColorMatrix type="matrix" values="0 0 0 0 0 0 0 0 0 0 0 0 0 0 0 0 0 0 0.1 0"/>
<feBlend mode="normal" in2="BackgroundImageFix" result="effect1_dropShadow_869_29"/>
<feBlend mode="normal" in="SourceGraphic" in2="effect1_dropShadow_869_29" result="shape"/>
</filter>
<filter id="filter1_d_869_29" x="157" y="86" width="119" height="110" filterUnits="userSpaceOnUse" color-interpolation-filters="sRGB">
<feFlood flood-opacity="0" result="BackgroundImageFix"/>
<feColorMatrix in="SourceAlpha" type="matrix" values="0 0 0 0 0 0 0 0 0 0 0 0 0 0 0 0 0 0 127 0" result="hardAlpha"/>
<feOffset dy="4"/>
<feGaussianBlur stdDeviation="5"/>
<feComposite in2="hardAlpha" operator="out"/>
<feColorMatrix type="matrix" values="0 0 0 0 0 0 0 0 0 0 0 0 0 0 0 0 0 0 0.2 0"/>
<feBlend mode="normal" in2="BackgroundImageFix" result="effect1_dropShadow_869_29"/>
<feBlend mode="normal" in="SourceGraphic" in2="effect1_dropShadow_869_29" result="shape"/>
</filter>
<linearGradient id="paint0_linear_869_29" x1="332" y1="9.39866e-06" x2="-50.299" y2="182.646" gradientUnits="userSpaceOnUse">
<stop stop-color="#7600FF"/>
<stop offset="1" stop-color="#28007D"/>
</linearGradient>
<clipPath id="clip0_869_29">
<rect width="314" height="182" rx="17" fill="white"/>
</clipPath>
</defs>
</svg>
