<svg width="334" height="202" viewBox="0 0 334 202" fill="none" xmlns="http://www.w3.org/2000/svg">
<g filter="url(#filter0_d_234_493)">
<rect x="10" y="8" width="314" height="182" rx="17" fill="url(#paint0_linear_234_493)"/>
</g>
<path d="M39.9766 47.2344C43.1992 47.2344 45.1816 45.6523 45.1816 43.1523V43.1426C45.1816 40.9941 43.9707 39.8223 41.0801 39.1875L39.5176 38.8457C37.6816 38.4453 36.832 37.7227 36.832 36.5703V36.5605C36.832 35.2031 38.0625 34.3047 39.9473 34.2949C41.7344 34.2949 42.9355 35.1445 43.1504 36.5801L43.1699 36.7168H44.9277L44.918 36.5703C44.7617 34.2656 42.75 32.6738 39.9961 32.6738C37.0957 32.6738 35.0449 34.2949 35.0352 36.6094V36.6191C35.0352 38.6797 36.3242 39.9199 39.0781 40.5254L40.6406 40.8672C42.5742 41.2969 43.3848 41.9902 43.3848 43.2305V43.2402C43.3848 44.6953 42.1055 45.6133 40.0742 45.6133C38.0332 45.6133 36.666 44.7441 36.4609 43.3281L36.4414 43.1914H34.6836L34.6934 43.3281C34.8691 45.7402 36.9297 47.2344 39.9766 47.2344ZM48.9902 47H50.7188L53.0039 39.1387H53.043L55.3379 47H57.0664L59.8984 36.8438H58.2188L56.1875 45.1055H56.1484L53.8438 36.8438H52.2031L49.9082 45.1055H49.8691L47.8379 36.8438H46.1484L48.9902 47ZM62.252 35.125C62.8477 35.125 63.3164 34.6465 63.3164 34.0605C63.3164 33.4648 62.8477 32.9961 62.252 32.9961C61.666 32.9961 61.1875 33.4648 61.1875 34.0605C61.1875 34.6465 61.666 35.125 62.252 35.125ZM61.4023 47H63.1016V36.8438H61.4023V47ZM65.416 50.418H67.1152V45.3008H67.1543C67.7891 46.4727 68.9707 47.1953 70.4062 47.1953C72.9551 47.1953 74.6934 45.1348 74.6934 41.9316V41.9219C74.6934 38.7188 72.9746 36.6484 70.377 36.6484C68.9219 36.6484 67.7891 37.3809 67.1543 38.5625H67.1152V36.8438H65.416V50.418ZM70.0449 45.6914C68.3359 45.6914 67.1055 44.1973 67.1055 41.9316V41.9219C67.1055 39.6465 68.3262 38.1523 70.0449 38.1523C71.8418 38.1523 72.9551 39.5879 72.9551 41.9219V41.9316C72.9551 44.2461 71.8418 45.6914 70.0449 45.6914ZM80.5918 47.1953C82.8086 47.1953 84.4688 45.8672 84.8008 44.1875L84.8203 44.0898H83.1504L83.1211 44.1777C82.8281 45.0469 81.9199 45.6914 80.6309 45.6914C78.8242 45.6914 77.6719 44.4707 77.6328 42.3809H84.9473V41.7559C84.9473 38.709 83.2578 36.6484 80.4844 36.6484C77.7109 36.6484 75.9141 38.8066 75.9141 41.9512V41.9609C75.9141 45.1543 77.6719 47.1953 80.5918 47.1953ZM80.4746 38.1523C81.959 38.1523 83.0527 39.0801 83.2188 41.0527H77.6621C77.8477 39.1582 79 38.1523 80.4746 38.1523ZM94.0684 47.1953C94.4004 47.1953 94.7617 47.1562 94.9766 47.127V45.75C94.8301 45.7598 94.6348 45.7891 94.4297 45.7891C93.5215 45.7891 93.043 45.4863 93.043 44.4023V38.25H94.9766V36.8438H93.043V34.0996H91.2852V36.8438H89.8008V38.25H91.2852V44.4121C91.2852 46.3555 92.2031 47.1953 94.0684 47.1953ZM99.5762 47.1953C100.934 47.1953 102.154 46.4629 102.75 45.3496H102.789V47H104.488V39.9785C104.488 37.9473 102.984 36.6484 100.582 36.6484C98.1895 36.6484 96.7344 37.9961 96.5879 39.666L96.5781 39.7734H98.2188L98.2383 39.6855C98.4336 38.7773 99.2539 38.1523 100.562 38.1523C101.979 38.1523 102.789 38.9043 102.789 40.1445V40.9941L99.8789 41.1602C97.5449 41.2969 96.1973 42.3809 96.1973 44.1094V44.1289C96.1973 45.9746 97.5547 47.1953 99.5762 47.1953ZM97.9355 44.1289V44.1094C97.9355 43.1621 98.7168 42.5566 100.074 42.4785L102.789 42.3125V43.1426C102.789 44.6172 101.559 45.7207 99.957 45.7207C98.7363 45.7207 97.9355 45.1055 97.9355 44.1289ZM110.25 47.1953C112.516 47.1953 114.195 45.9453 114.195 44.168V44.1582C114.195 42.7129 113.453 41.9023 111.402 41.4043L109.791 41.0137C108.668 40.7402 108.209 40.2617 108.209 39.5684V39.5586C108.209 38.6602 108.971 38.0645 110.201 38.0645C111.461 38.0645 112.213 38.7188 112.35 39.7051L112.359 39.7734H113.98L113.971 39.6465C113.844 37.9473 112.428 36.6484 110.201 36.6484C108.004 36.6484 106.471 37.8887 106.471 39.6367V39.6465C106.471 41.1113 107.398 42 109.312 42.459L110.924 42.8496C112.076 43.1328 112.457 43.543 112.457 44.2754V44.2852C112.457 45.2031 111.637 45.7793 110.26 45.7793C108.873 45.7793 108.121 45.1836 107.916 44.168L107.896 44.0703H106.197L106.207 44.1582C106.412 45.9746 107.857 47.1953 110.25 47.1953ZM116.1 47H117.799V43.1719L118.746 42.2637L122.516 47H124.488L119.947 41.2285L124.352 36.8438H122.291L117.838 41.3262H117.799V32.9082H116.1V47ZM128.883 47.1953C131.148 47.1953 132.828 45.9453 132.828 44.168V44.1582C132.828 42.7129 132.086 41.9023 130.035 41.4043L128.424 41.0137C127.301 40.7402 126.842 40.2617 126.842 39.5684V39.5586C126.842 38.6602 127.604 38.0645 128.834 38.0645C130.094 38.0645 130.846 38.7188 130.982 39.7051L130.992 39.7734H132.613L132.604 39.6465C132.477 37.9473 131.061 36.6484 128.834 36.6484C126.637 36.6484 125.104 37.8887 125.104 39.6367V39.6465C125.104 41.1113 126.031 42 127.945 42.459L129.557 42.8496C130.709 43.1328 131.09 43.543 131.09 44.2754V44.2852C131.09 45.2031 130.27 45.7793 128.893 45.7793C127.506 45.7793 126.754 45.1836 126.549 44.168L126.529 44.0703H124.83L124.84 44.1582C125.045 45.9746 126.49 47.1953 128.883 47.1953ZM141.998 47.1953C142.33 47.1953 142.691 47.1562 142.906 47.127V45.75C142.76 45.7598 142.564 45.7891 142.359 45.7891C141.451 45.7891 140.973 45.4863 140.973 44.4023V38.25H142.906V36.8438H140.973V34.0996H139.215V36.8438H137.73V38.25H139.215V44.4121C139.215 46.3555 140.133 47.1953 141.998 47.1953ZM148.648 47.1953C151.451 47.1953 153.346 45.1641 153.346 41.9219V41.9023C153.346 38.6602 151.441 36.6484 148.639 36.6484C145.836 36.6484 143.941 38.6699 143.941 41.9023V41.9219C143.941 45.1543 145.826 47.1953 148.648 47.1953ZM148.658 45.6914C146.861 45.6914 145.68 44.3145 145.68 41.9219V41.9023C145.68 39.5293 146.871 38.1523 148.639 38.1523C150.436 38.1523 151.607 39.5195 151.607 41.9023V41.9219C151.607 44.3047 150.445 45.6914 148.658 45.6914ZM162.467 47.1953C162.799 47.1953 163.16 47.1562 163.375 47.127V45.75C163.229 45.7598 163.033 45.7891 162.828 45.7891C161.92 45.7891 161.441 45.4863 161.441 44.4023V38.25H163.375V36.8438H161.441V34.0996H159.684V36.8438H158.199V38.25H159.684V44.4121C159.684 46.3555 160.602 47.1953 162.467 47.1953ZM165.289 47H166.988V41.0723C166.988 39.3438 168.033 38.1523 169.605 38.1523C171.188 38.1523 172.125 39.2363 172.125 41.0723V47H173.824V40.7793C173.824 38.3184 172.35 36.6484 170.191 36.6484C168.678 36.6484 167.574 37.3223 167.027 38.4648H166.988V32.9082H165.289V47ZM180.162 47.1953C182.379 47.1953 184.039 45.8672 184.371 44.1875L184.391 44.0898H182.721L182.691 44.1777C182.398 45.0469 181.49 45.6914 180.201 45.6914C178.395 45.6914 177.242 44.4707 177.203 42.3809H184.518V41.7559C184.518 38.709 182.828 36.6484 180.055 36.6484C177.281 36.6484 175.484 38.8066 175.484 41.9512V41.9609C175.484 45.1543 177.242 47.1953 180.162 47.1953ZM180.045 38.1523C181.529 38.1523 182.623 39.0801 182.789 41.0527H177.232C177.418 39.1582 178.57 38.1523 180.045 38.1523ZM190.338 47H192.037V40.7305C192.037 39.1875 192.896 38.2695 194.215 38.2695C194.625 38.2695 194.986 38.3184 195.123 38.3672V36.7168C194.986 36.6973 194.732 36.6484 194.439 36.6484C193.297 36.6484 192.418 37.3906 192.076 38.5625H192.037V36.8438H190.338V47ZM197.467 35.125C198.062 35.125 198.531 34.6465 198.531 34.0605C198.531 33.4648 198.062 32.9961 197.467 32.9961C196.881 32.9961 196.402 33.4648 196.402 34.0605C196.402 34.6465 196.881 35.125 197.467 35.125ZM196.617 47H198.316V36.8438H196.617V47ZM204.928 50.6133C207.682 50.6133 209.41 49.0703 209.41 46.7168V36.8438H207.711V38.5625H207.672C207.047 37.4297 205.914 36.6484 204.479 36.6484C201.9 36.6484 200.133 38.6992 200.133 41.8535V41.8633C200.133 45.0371 201.881 47.0977 204.439 47.0977C205.895 47.0977 207.066 46.375 207.672 45.252H207.711V46.5508C207.711 48.123 206.695 49.1094 204.908 49.1094C203.521 49.1094 202.555 48.6602 202.232 47.9277L202.193 47.8398H200.484L200.504 47.9277C200.836 49.4316 202.418 50.6133 204.928 50.6133ZM204.811 45.5938C203.004 45.5938 201.871 44.168 201.871 41.8633V41.8535C201.871 39.5977 203.004 38.1523 204.811 38.1523C206.529 38.1523 207.711 39.6172 207.711 41.8535V41.8633C207.711 44.1191 206.539 45.5938 204.811 45.5938ZM211.695 47H213.395V41.0723C213.395 39.3438 214.439 38.1523 216.012 38.1523C217.594 38.1523 218.531 39.2363 218.531 41.0723V47H220.23V40.7793C220.23 38.3184 218.756 36.6484 216.598 36.6484C215.084 36.6484 213.98 37.3223 213.434 38.4648H213.395V32.9082H211.695V47ZM225.689 47.1953C226.021 47.1953 226.383 47.1562 226.598 47.127V45.75C226.451 45.7598 226.256 45.7891 226.051 45.7891C225.143 45.7891 224.664 45.4863 224.664 44.4023V38.25H226.598V36.8438H224.664V34.0996H222.906V36.8438H221.422V38.25H222.906V44.4121C222.906 46.3555 223.824 47.1953 225.689 47.1953ZM235.826 47.1953C236.158 47.1953 236.52 47.1562 236.734 47.127V45.75C236.588 45.7598 236.393 45.7891 236.188 45.7891C235.279 45.7891 234.801 45.4863 234.801 44.4023V38.25H236.734V36.8438H234.801V34.0996H233.043V36.8438H231.559V38.25H233.043V44.4121C233.043 46.3555 233.961 47.1953 235.826 47.1953ZM242.477 47.1953C245.279 47.1953 247.174 45.1641 247.174 41.9219V41.9023C247.174 38.6602 245.27 36.6484 242.467 36.6484C239.664 36.6484 237.77 38.6699 237.77 41.9023V41.9219C237.77 45.1543 239.654 47.1953 242.477 47.1953ZM242.486 45.6914C240.689 45.6914 239.508 44.3145 239.508 41.9219V41.9023C239.508 39.5293 240.699 38.1523 242.467 38.1523C244.264 38.1523 245.436 39.5195 245.436 41.9023V41.9219C245.436 44.3047 244.273 45.6914 242.486 45.6914ZM39.3125 71.1953C41.6074 71.1953 43.2773 69.7012 43.5508 67.7676L43.5605 67.6992H41.8906L41.8711 67.7773C41.5879 68.9102 40.6992 69.6914 39.3125 69.6914C37.5547 69.6914 36.3438 68.2949 36.3438 65.9316V65.9219C36.3438 63.6172 37.5254 62.1523 39.293 62.1523C40.7871 62.1523 41.6074 63.0508 41.8613 64.0664L41.8809 64.1445H43.541L43.5312 64.0664C43.3164 62.3281 41.8223 60.6484 39.293 60.6484C36.4707 60.6484 34.6055 62.6992 34.6055 65.9023V65.9121C34.6055 69.1445 36.4316 71.1953 39.3125 71.1953ZM49.332 71.1953C52.1348 71.1953 54.0293 69.1641 54.0293 65.9219V65.9023C54.0293 62.6602 52.125 60.6484 49.3223 60.6484C46.5195 60.6484 44.625 62.6699 44.625 65.9023V65.9219C44.625 69.1543 46.5098 71.1953 49.332 71.1953ZM49.3418 69.6914C47.5449 69.6914 46.3633 68.3145 46.3633 65.9219V65.9023C46.3633 63.5293 47.5547 62.1523 49.3223 62.1523C51.1191 62.1523 52.291 63.5195 52.291 65.9023V65.9219C52.291 68.3047 51.1289 69.6914 49.3418 69.6914ZM55.748 71H57.4473V64.6328C57.4473 63.2168 58.4238 62.1523 59.7715 62.1523C61.0312 62.1523 61.8516 62.9629 61.8516 64.1934V71H63.5508V64.5449C63.5508 63.1582 64.498 62.1523 65.8457 62.1523C67.1836 62.1523 67.9551 62.9824 67.9551 64.3789V71H69.6543V63.9883C69.6543 61.9668 68.3555 60.6484 66.3438 60.6484C64.918 60.6484 63.7266 61.3809 63.1602 62.6016H63.1211C62.6816 61.3613 61.6562 60.6484 60.2695 60.6484C58.9609 60.6484 57.9453 61.3223 57.4863 62.3281H57.4473V60.8438H55.748V71ZM71.8223 74.418H73.5215V69.3008H73.5605C74.1953 70.4727 75.377 71.1953 76.8125 71.1953C79.3613 71.1953 81.0996 69.1348 81.0996 65.9316V65.9219C81.0996 62.7188 79.3809 60.6484 76.7832 60.6484C75.3281 60.6484 74.1953 61.3809 73.5605 62.5625H73.5215V60.8438H71.8223V74.418ZM76.4512 69.6914C74.7422 69.6914 73.5117 68.1973 73.5117 65.9316V65.9219C73.5117 63.6465 74.7324 62.1523 76.4512 62.1523C78.248 62.1523 79.3613 63.5879 79.3613 65.9219V65.9316C79.3613 68.2461 78.248 69.6914 76.4512 69.6914ZM82.9062 71H84.6055V56.9082H82.9062V71ZM91.0801 71.1953C93.2969 71.1953 94.957 69.8672 95.2891 68.1875L95.3086 68.0898H93.6387L93.6094 68.1777C93.3164 69.0469 92.4082 69.6914 91.1191 69.6914C89.3125 69.6914 88.1602 68.4707 88.1211 66.3809H95.4355V65.7559C95.4355 62.709 93.7461 60.6484 90.9727 60.6484C88.1992 60.6484 86.4023 62.8066 86.4023 65.9512V65.9609C86.4023 69.1543 88.1602 71.1953 91.0801 71.1953ZM90.9629 62.1523C92.4473 62.1523 93.541 63.0801 93.707 65.0527H88.1504C88.3359 63.1582 89.4883 62.1523 90.9629 62.1523ZM100.455 71.1953C100.787 71.1953 101.148 71.1562 101.363 71.127V69.75C101.217 69.7598 101.021 69.7891 100.816 69.7891C99.9082 69.7891 99.4297 69.4863 99.4297 68.4023V62.25H101.363V60.8438H99.4297V58.0996H97.6719V60.8438H96.1875V62.25H97.6719V68.4121C97.6719 70.3555 98.5898 71.1953 100.455 71.1953ZM107.076 71.1953C109.293 71.1953 110.953 69.8672 111.285 68.1875L111.305 68.0898H109.635L109.605 68.1777C109.312 69.0469 108.404 69.6914 107.115 69.6914C105.309 69.6914 104.156 68.4707 104.117 66.3809H111.432V65.7559C111.432 62.709 109.742 60.6484 106.969 60.6484C104.195 60.6484 102.398 62.8066 102.398 65.9512V65.9609C102.398 69.1543 104.156 71.1953 107.076 71.1953ZM106.959 62.1523C108.443 62.1523 109.537 63.0801 109.703 65.0527H104.146C104.332 63.1582 105.484 62.1523 106.959 62.1523ZM120.221 71.1953C121.578 71.1953 122.799 70.4629 123.395 69.3496H123.434V71H125.133V63.9785C125.133 61.9473 123.629 60.6484 121.227 60.6484C118.834 60.6484 117.379 61.9961 117.232 63.666L117.223 63.7734H118.863L118.883 63.6855C119.078 62.7773 119.898 62.1523 121.207 62.1523C122.623 62.1523 123.434 62.9043 123.434 64.1445V64.9941L120.523 65.1602C118.189 65.2969 116.842 66.3809 116.842 68.1094V68.1289C116.842 69.9746 118.199 71.1953 120.221 71.1953ZM118.58 68.1289V68.1094C118.58 67.1621 119.361 66.5566 120.719 66.4785L123.434 66.3125V67.1426C123.434 68.6172 122.203 69.7207 120.602 69.7207C119.381 69.7207 118.58 69.1055 118.58 68.1289ZM127.291 71H128.99V65.0234C128.99 63.2949 130.035 62.1523 131.637 62.1523C133.199 62.1523 133.971 63.0605 133.971 64.7109V71H135.67V64.4082C135.67 62.0938 134.381 60.6484 132.154 60.6484C130.611 60.6484 129.576 61.3418 129.029 62.2891H128.99V60.8438H127.291V71ZM141.656 71.1953C143.111 71.1953 144.244 70.4629 144.879 69.2812H144.918V71H146.617V56.9082H144.918V62.543H144.879C144.244 61.3711 143.062 60.6484 141.627 60.6484C139.078 60.6484 137.34 62.709 137.34 65.9121V65.9219C137.34 69.125 139.059 71.1953 141.656 71.1953ZM141.988 69.6914C140.191 69.6914 139.078 68.2559 139.078 65.9219V65.9121C139.078 63.5977 140.191 62.1523 141.988 62.1523C143.697 62.1523 144.928 63.6465 144.928 65.9121V65.9219C144.928 68.1973 143.707 69.6914 141.988 69.6914ZM153.102 71H154.801V56.9082H153.102V71ZM161.275 71.1953C163.492 71.1953 165.152 69.8672 165.484 68.1875L165.504 68.0898H163.834L163.805 68.1777C163.512 69.0469 162.604 69.6914 161.314 69.6914C159.508 69.6914 158.355 68.4707 158.316 66.3809H165.631V65.7559C165.631 62.709 163.941 60.6484 161.168 60.6484C158.395 60.6484 156.598 62.8066 156.598 65.9512V65.9609C156.598 69.1543 158.355 71.1953 161.275 71.1953ZM161.158 62.1523C162.643 62.1523 163.736 63.0801 163.902 65.0527H158.346C158.531 63.1582 159.684 62.1523 161.158 62.1523ZM167.896 71H169.596V62.25H171.666V60.8438H169.576V59.6035C169.576 58.5977 170.045 58.1191 170.982 58.1191C171.246 58.1191 171.51 58.1289 171.715 58.1582V56.7812C171.461 56.7422 171.061 56.7129 170.68 56.7129C168.805 56.7129 167.896 57.6406 167.896 59.5938V60.8438H166.48V62.25H167.896V71ZM176.725 71.1953C177.057 71.1953 177.418 71.1562 177.633 71.127V69.75C177.486 69.7598 177.291 69.7891 177.086 69.7891C176.178 69.7891 175.699 69.4863 175.699 68.4023V62.25H177.633V60.8438H175.699V58.0996H173.941V60.8438H172.457V62.25H173.941V68.4121C173.941 70.3555 174.859 71.1953 176.725 71.1953ZM186.861 71.1953C187.193 71.1953 187.555 71.1562 187.77 71.127V69.75C187.623 69.7598 187.428 69.7891 187.223 69.7891C186.314 69.7891 185.836 69.4863 185.836 68.4023V62.25H187.77V60.8438H185.836V58.0996H184.078V60.8438H182.594V62.25H184.078V68.4121C184.078 70.3555 184.996 71.1953 186.861 71.1953ZM193.512 71.1953C196.314 71.1953 198.209 69.1641 198.209 65.9219V65.9023C198.209 62.6602 196.305 60.6484 193.502 60.6484C190.699 60.6484 188.805 62.6699 188.805 65.9023V65.9219C188.805 69.1543 190.689 71.1953 193.512 71.1953ZM193.521 69.6914C191.725 69.6914 190.543 68.3145 190.543 65.9219V65.9023C190.543 63.5293 191.734 62.1523 193.502 62.1523C195.299 62.1523 196.471 63.5195 196.471 65.9023V65.9219C196.471 68.3047 195.309 69.6914 193.521 69.6914ZM207.848 71.1953C209.303 71.1953 210.436 70.4629 211.07 69.2812H211.109V71H212.809V56.9082H211.109V62.543H211.07C210.436 61.3711 209.254 60.6484 207.818 60.6484C205.27 60.6484 203.531 62.709 203.531 65.9121V65.9219C203.531 69.125 205.25 71.1953 207.848 71.1953ZM208.18 69.6914C206.383 69.6914 205.27 68.2559 205.27 65.9219V65.9121C205.27 63.5977 206.383 62.1523 208.18 62.1523C209.889 62.1523 211.119 63.6465 211.119 65.9121V65.9219C211.119 68.1973 209.898 69.6914 208.18 69.6914ZM216.061 59.125C216.656 59.125 217.125 58.6465 217.125 58.0605C217.125 57.4648 216.656 56.9961 216.061 56.9961C215.475 56.9961 214.996 57.4648 214.996 58.0605C214.996 58.6465 215.475 59.125 216.061 59.125ZM215.211 71H216.91V60.8438H215.211V71ZM222.828 71.1953C225.094 71.1953 226.773 69.9453 226.773 68.168V68.1582C226.773 66.7129 226.031 65.9023 223.98 65.4043L222.369 65.0137C221.246 64.7402 220.787 64.2617 220.787 63.5684V63.5586C220.787 62.6602 221.549 62.0645 222.779 62.0645C224.039 62.0645 224.791 62.7188 224.928 63.7051L224.938 63.7734H226.559L226.549 63.6465C226.422 61.9473 225.006 60.6484 222.779 60.6484C220.582 60.6484 219.049 61.8887 219.049 63.6367V63.6465C219.049 65.1113 219.977 66 221.891 66.459L223.502 66.8496C224.654 67.1328 225.035 67.543 225.035 68.2754V68.2852C225.035 69.2031 224.215 69.7793 222.838 69.7793C221.451 69.7793 220.699 69.1836 220.494 68.168L220.475 68.0703H218.775L218.785 68.1582C218.99 69.9746 220.436 71.1953 222.828 71.1953ZM228.541 71H230.24V64.6328C230.24 63.2168 231.217 62.1523 232.564 62.1523C233.824 62.1523 234.645 62.9629 234.645 64.1934V71H236.344V64.5449C236.344 63.1582 237.291 62.1523 238.639 62.1523C239.977 62.1523 240.748 62.9824 240.748 64.3789V71H242.447V63.9883C242.447 61.9668 241.148 60.6484 239.137 60.6484C237.711 60.6484 236.52 61.3809 235.953 62.6016H235.914C235.475 61.3613 234.449 60.6484 233.062 60.6484C231.754 60.6484 230.738 61.3223 230.279 62.3281H230.24V60.8438H228.541V71ZM245.572 59.125C246.168 59.125 246.637 58.6465 246.637 58.0605C246.637 57.4648 246.168 56.9961 245.572 56.9961C244.986 56.9961 244.508 57.4648 244.508 58.0605C244.508 58.6465 244.986 59.125 245.572 59.125ZM244.723 71H246.422V60.8438H244.723V71ZM252.34 71.1953C254.605 71.1953 256.285 69.9453 256.285 68.168V68.1582C256.285 66.7129 255.543 65.9023 253.492 65.4043L251.881 65.0137C250.758 64.7402 250.299 64.2617 250.299 63.5684V63.5586C250.299 62.6602 251.061 62.0645 252.291 62.0645C253.551 62.0645 254.303 62.7188 254.439 63.7051L254.449 63.7734H256.07L256.061 63.6465C255.934 61.9473 254.518 60.6484 252.291 60.6484C250.094 60.6484 248.561 61.8887 248.561 63.6367V63.6465C248.561 65.1113 249.488 66 251.402 66.459L253.014 66.8496C254.166 67.1328 254.547 67.543 254.547 68.2754V68.2852C254.547 69.2031 253.727 69.7793 252.35 69.7793C250.963 69.7793 250.211 69.1836 250.006 68.168L249.986 68.0703H248.287L248.297 68.1582C248.502 69.9746 249.947 71.1953 252.34 71.1953ZM261.656 71.1953C263.922 71.1953 265.602 69.9453 265.602 68.168V68.1582C265.602 66.7129 264.859 65.9023 262.809 65.4043L261.197 65.0137C260.074 64.7402 259.615 64.2617 259.615 63.5684V63.5586C259.615 62.6602 260.377 62.0645 261.607 62.0645C262.867 62.0645 263.619 62.7188 263.756 63.7051L263.766 63.7734H265.387L265.377 63.6465C265.25 61.9473 263.834 60.6484 261.607 60.6484C259.41 60.6484 257.877 61.8887 257.877 63.6367V63.6465C257.877 65.1113 258.805 66 260.719 66.459L262.33 66.8496C263.482 67.1328 263.863 67.543 263.863 68.2754V68.2852C263.863 69.2031 263.043 69.7793 261.666 69.7793C260.279 69.7793 259.527 69.1836 259.322 68.168L259.303 68.0703H257.604L257.613 68.1582C257.818 69.9746 259.264 71.1953 261.656 71.1953ZM268.414 71.1367C269.039 71.1367 269.527 70.6484 269.527 70.0234C269.527 69.3984 269.039 68.9102 268.414 68.9102C267.789 68.9102 267.301 69.3984 267.301 70.0234C267.301 70.6484 267.789 71.1367 268.414 71.1367Z" fill="white"/>
<rect x="169" y="131" width="93" height="27" rx="8" fill="#6600EE"/>
<rect x="169" y="99" width="93" height="27" rx="8" fill="#6600EE"/>
<g opacity="0.3">
<rect x="169" y="99" width="107" height="27" rx="8" fill="url(#paint1_linear_234_493)"/>
</g>
<g filter="url(#filter1_d_234_493)">
<rect x="212" y="99" width="93" height="27" rx="8" fill="#30006F"/>
<rect x="216" y="103" width="20" height="19" rx="5" fill="#4700A6"/>
<rect x="240" y="105" width="25" height="6" rx="2" fill="#4700A6"/>
<rect x="240" y="114" width="40" height="6" rx="2" fill="#4700A6"/>
</g>
<g filter="url(#filter2_d_234_493)">
<rect x="135" y="131" width="93" height="27" rx="8" fill="#30006F"/>
<rect x="139" y="135" width="20" height="19" rx="5" fill="#4700A6"/>
<rect x="163" y="137" width="25" height="6" rx="2" fill="#4700A6"/>
<rect x="163" y="146" width="40" height="6" rx="2" fill="#4700A6"/>
</g>
<path d="M296.059 168.109C300.992 166.316 302.668 162.215 300.746 156.953L299.949 154.762C299.234 152.781 297.816 151.867 296.68 152.277C296.41 152.383 296.305 152.594 296.398 152.852L296.75 153.801C296.902 154.223 296.773 154.504 296.527 154.598C296.258 154.703 295.965 154.562 295.812 154.141L295.59 153.52C295.156 152.336 294.102 151.82 293.059 152.195C292.566 152.371 292.414 152.676 292.566 153.098L293.035 154.387C293.199 154.809 293.07 155.09 292.812 155.184C292.543 155.289 292.262 155.148 292.109 154.727L291.676 153.531C291.195 152.207 290.188 151.832 289.156 152.207C288.688 152.371 288.523 152.688 288.664 153.098L289.59 155.641C289.742 156.062 289.613 156.344 289.367 156.438C289.098 156.543 288.816 156.402 288.664 155.98L285.594 147.555C285.277 146.699 284.504 146.324 283.766 146.594C282.969 146.887 282.629 147.66 282.945 148.527L287.398 160.762C287.504 161.043 287.387 161.254 287.211 161.324C287.035 161.383 286.859 161.336 286.648 161.102L283.648 157.891C283.18 157.387 282.676 157.223 282.102 157.434C281.293 157.727 280.953 158.477 281.211 159.18C281.305 159.449 281.434 159.66 281.574 159.824L285.441 164.629C288.664 168.648 292.367 169.457 296.059 168.109ZM281.246 148.832C277.742 150.965 275.469 154.914 275.469 159.73C275.469 160.211 275.879 160.621 276.324 160.609C276.793 160.598 277.133 160.234 277.145 159.766C277.25 155.605 279.008 152.336 281.844 150.461L281.246 148.832Z" fill="white"/>
<path opacity="0.5" d="M191.916 118.422C192.285 118.422 192.579 118.271 192.941 117.943L198.355 112.857C198.622 112.604 198.718 112.311 198.718 112.064C198.718 111.805 198.622 111.524 198.355 111.271L192.941 106.22C192.545 105.857 192.292 105.707 191.93 105.707C191.39 105.707 191.007 106.131 191.007 106.657V109.104H190.836C186.092 109.104 183.911 112.153 183.911 117.116C183.911 117.957 184.273 118.395 184.745 118.395C185.101 118.395 185.436 118.285 185.695 117.793C186.782 115.77 188.32 115.045 190.836 115.045H191.007V117.513C191.007 118.032 191.39 118.422 191.916 118.422Z" fill="url(#paint2_linear_234_493)"/>
<path d="M226 117.519C228.759 117.519 231.044 115.238 231.044 112.475C231.044 109.716 228.759 107.431 225.995 107.431C223.236 107.431 220.956 109.716 220.956 112.475C220.956 115.238 223.241 117.519 226 117.519ZM225.458 114.887C225.272 114.887 225.121 114.804 224.984 114.628L223.788 113.173C223.7 113.065 223.656 112.948 223.656 112.826C223.656 112.577 223.852 112.372 224.105 112.372C224.257 112.372 224.374 112.431 224.496 112.587L225.438 113.783L227.46 110.551C227.562 110.38 227.699 110.297 227.855 110.297C228.1 110.297 228.319 110.468 228.319 110.722C228.319 110.834 228.261 110.956 228.192 111.063L225.907 114.628C225.795 114.794 225.639 114.887 225.458 114.887Z" fill="#92FF81"/>
<path d="M149 149.519C151.759 149.519 154.044 147.238 154.044 144.475C154.044 141.716 151.759 139.431 148.995 139.431C146.236 139.431 143.956 141.716 143.956 144.475C143.956 147.238 146.241 149.519 149 149.519ZM147.335 146.608C147.076 146.608 146.876 146.403 146.876 146.14C146.876 146.022 146.925 145.91 147.013 145.822L148.351 144.479L147.013 143.142C146.925 143.054 146.876 142.941 146.876 142.819C146.876 142.561 147.076 142.365 147.335 142.365C147.467 142.365 147.574 142.404 147.657 142.497L149 143.835L150.353 142.492C150.445 142.399 150.548 142.355 150.675 142.355C150.934 142.355 151.134 142.556 151.134 142.814C151.134 142.937 151.09 143.044 150.997 143.137L149.659 144.479L150.997 145.817C151.085 145.91 151.129 146.018 151.129 146.14C151.129 146.403 150.929 146.608 150.67 146.608C150.538 146.608 150.426 146.555 150.333 146.472L149 145.134L147.672 146.472C147.579 146.56 147.467 146.608 147.335 146.608Z" fill="#FF818E"/>
<path opacity="0.5" d="M246.077 149.422C246.604 149.422 246.993 149.032 246.993 148.513V146.045H247.164C249.673 146.045 251.211 146.77 252.298 148.793C252.564 149.285 252.899 149.395 253.248 149.395C253.72 149.395 254.082 148.957 254.082 148.116C254.082 143.153 251.901 140.104 247.164 140.104H246.993V137.657C246.993 137.131 246.604 136.707 246.063 136.707C245.701 136.707 245.448 136.857 245.059 137.22L239.638 142.271C239.371 142.524 239.275 142.805 239.275 143.064C239.275 143.311 239.378 143.604 239.645 143.857L245.059 148.943C245.414 149.271 245.708 149.422 246.077 149.422Z" fill="url(#paint3_linear_234_493)"/>
<circle cx="38" cy="167" r="4" fill="white"/>
<circle opacity="0.2" cx="51" cy="167" r="4" fill="white"/>
<circle opacity="0.2" cx="64" cy="167" r="4" fill="white"/>
<defs>
<filter id="filter0_d_234_493" x="0" y="0" width="334" height="202" filterUnits="userSpaceOnUse" color-interpolation-filters="sRGB">
<feFlood flood-opacity="0" result="BackgroundImageFix"/>
<feColorMatrix in="SourceAlpha" type="matrix" values="0 0 0 0 0 0 0 0 0 0 0 0 0 0 0 0 0 0 127 0" result="hardAlpha"/>
<feOffset dy="2"/>
<feGaussianBlur stdDeviation="5"/>
<feComposite in2="hardAlpha" operator="out"/>
<feColorMatrix type="matrix" values="0 0 0 0 0 0 0 0 0 0 0 0 0 0 0 0 0 0 0.1 0"/>
<feBlend mode="normal" in2="BackgroundImageFix" result="effect1_dropShadow_234_493"/>
<feBlend mode="normal" in="SourceGraphic" in2="effect1_dropShadow_234_493" result="shape"/>
</filter>
<filter id="filter1_d_234_493" x="208" y="99" width="101" height="35" filterUnits="userSpaceOnUse" color-interpolation-filters="sRGB">
<feFlood flood-opacity="0" result="BackgroundImageFix"/>
<feColorMatrix in="SourceAlpha" type="matrix" values="0 0 0 0 0 0 0 0 0 0 0 0 0 0 0 0 0 0 127 0" result="hardAlpha"/>
<feOffset dy="4"/>
<feGaussianBlur stdDeviation="2"/>
<feComposite in2="hardAlpha" operator="out"/>
<feColorMatrix type="matrix" values="0 0 0 0 0 0 0 0 0 0 0 0 0 0 0 0 0 0 0.1 0"/>
<feBlend mode="normal" in2="BackgroundImageFix" result="effect1_dropShadow_234_493"/>
<feBlend mode="normal" in="SourceGraphic" in2="effect1_dropShadow_234_493" result="shape"/>
</filter>
<filter id="filter2_d_234_493" x="131" y="131" width="101" height="35" filterUnits="userSpaceOnUse" color-interpolation-filters="sRGB">
<feFlood flood-opacity="0" result="BackgroundImageFix"/>
<feColorMatrix in="SourceAlpha" type="matrix" values="0 0 0 0 0 0 0 0 0 0 0 0 0 0 0 0 0 0 127 0" result="hardAlpha"/>
<feOffset dy="4"/>
<feGaussianBlur stdDeviation="2"/>
<feComposite in2="hardAlpha" operator="out"/>
<feColorMatrix type="matrix" values="0 0 0 0 0 0 0 0 0 0 0 0 0 0 0 0 0 0 0.1 0"/>
<feBlend mode="normal" in2="BackgroundImageFix" result="effect1_dropShadow_234_493"/>
<feBlend mode="normal" in="SourceGraphic" in2="effect1_dropShadow_234_493" result="shape"/>
</filter>
<linearGradient id="paint0_linear_234_493" x1="342" y1="8.00001" x2="-40.299" y2="190.646" gradientUnits="userSpaceOnUse">
<stop stop-color="#7600FF"/>
<stop offset="1" stop-color="#28007D"/>
</linearGradient>
<linearGradient id="paint1_linear_234_493" x1="215.5" y1="113.5" x2="168.5" y2="114" gradientUnits="userSpaceOnUse">
<stop stop-color="#30006F"/>
<stop offset="1" stop-color="#30006F" stop-opacity="0"/>
</linearGradient>
<linearGradient id="paint2_linear_234_493" x1="202.193" y1="77.0833" x2="178.947" y2="77.7745" gradientUnits="userSpaceOnUse">
<stop stop-color="white"/>
<stop offset="1" stop-color="#AFE2FF"/>
</linearGradient>
<linearGradient id="paint3_linear_234_493" x1="258.193" y1="108.083" x2="234.947" y2="108.774" gradientUnits="userSpaceOnUse">
<stop stop-color="white"/>
<stop offset="1" stop-color="#AFE2FF"/>
</linearGradient>
</defs>
</svg>
